# Blender 5.1.2
# www.blender.org
mtllib BladeFinal.mtl
o Blade
v 0.048406 -0.378662 -0.253605
v -0.013243 -0.873900 -0.253605
v -0.013243 -0.873900 -0.197355
v 0.048406 -0.378662 -0.197355
v -0.136539 0.539920 -0.253605
v 0.010072 0.063015 -0.253605
v 0.010072 0.063015 -0.197355
v -0.136539 0.539920 -0.197355
v -0.765450 -0.791326 -0.253605
v -0.966971 -0.233909 -0.225700
v -0.966971 -0.233909 -0.253605
v -0.864398 0.350270 -0.225700
v -0.864398 0.350270 -0.253605
v -0.765450 -0.791326 -0.225700
v -0.864398 0.350270 -0.197355
v -0.966971 -0.233909 -0.197355
v -0.485184 0.804683 -0.197355
v -0.765450 -0.791326 -0.197355
v -0.485184 0.804683 -0.225700
v -0.485184 0.804683 -0.253605
v 0.693898 0.351811 -0.253605
v 0.575262 0.210084 -0.253605
v 0.575262 0.210084 -0.197355
v 0.693898 0.351811 -0.197355
v 0.581997 -0.454977 -0.253605
v 0.731197 -0.629064 -0.253605
v 0.731197 -0.629064 -0.197355
v 0.581997 -0.454977 -0.197355
v 0.823410 -0.417140 -0.197355
v 0.844651 -0.241725 -0.253605
v 0.823410 -0.417140 -0.253605
v 0.844651 -0.241725 -0.197355
v 0.839469 -0.098764 -0.253605
v 0.839469 -0.098764 -0.197355
v 0.819782 0.091220 -0.253605
v 0.819782 0.091220 -0.197355
v 0.693898 0.351811 -0.197355
v 0.613597 0.462496 -0.253605
v 0.693898 0.351811 -0.253605
v 0.613597 0.462496 -0.197355
v 0.642607 -0.734953 -0.197355
v 0.731197 -0.629064 -0.253605
v 0.642607 -0.734953 -0.253605
v 0.731197 -0.629064 -0.197355
v 0.366488 -0.393933 -0.253605
v 0.557133 -0.220190 -0.253605
v 0.557133 -0.220190 -0.197355
v 0.366488 -0.393933 -0.197355
v -0.765450 -0.791326 -0.253605
v -0.765450 -0.791326 -0.225700
v -0.313192 -1.172626 -0.253605
v -0.765450 -0.791326 -0.197355
v 0.822893 -1.072751 -0.197355
v 0.822893 -1.072751 -0.225700
v 0.268057 -1.275631 -0.197355
v 0.822893 -1.072751 -0.253605
v 0.268057 -1.275631 -0.225700
v -0.313192 -1.172626 -0.197355
v 0.268057 -1.275631 -0.253605
v -0.313192 -1.172626 -0.225700
v 0.575262 0.210084 -0.253605
v 0.819782 0.091220 -0.253605
v 0.819782 0.091220 -0.197355
v 0.575262 0.210084 -0.197355
v 0.613597 0.462496 -0.253605
v 0.613597 0.462496 -0.197355
v 0.474761 0.569567 -0.253605
v 0.474761 0.569567 -0.197355
v 0.340067 0.636188 -0.253605
v 0.340067 0.636188 -0.197355
v 0.186207 0.677008 -0.253605
v 0.186207 0.677008 -0.197355
v 0.033383 0.692233 -0.253605
v 0.033383 0.692233 -0.197355
v -0.397635 0.389097 -0.253605
v -0.136539 0.539920 -0.253605
v -0.136539 0.539920 -0.197355
v -0.397635 0.389097 -0.197355
v -0.966971 -0.233909 -0.197355
v -0.296615 -0.770958 -0.197355
v 0.048406 -0.378662 -0.197355
v -0.765450 -0.791326 -0.197355
v -0.313192 -1.172626 -0.197355
v -0.013243 -0.873900 -0.197355
v 0.189314 -0.981586 -0.197355
v 0.268057 -1.275631 -0.197355
v 0.240086 -0.875978 -0.197355
v 0.371152 -0.932382 -0.197355
v 0.296550 -0.745752 -0.197355
v 0.822893 -1.072751 -0.197355
v 0.504807 -0.861769 -0.197355
v 0.642607 -0.734953 -0.197355
v 0.731197 -0.629064 -0.197355
v 0.346284 -0.555732 -0.197355
v 1.202102 -0.618338 -0.197355
v 0.366488 -0.393933 -0.197355
v 0.823410 -0.417140 -0.197355
v 0.581997 -0.454977 -0.197355
v 0.844651 -0.241725 -0.197355
v 1.304675 -0.034153 -0.197355
v 0.839469 -0.098764 -0.197355
v 0.819782 0.091220 -0.197355
v 1.102636 0.523264 -0.197355
v 0.693898 0.351811 -0.197355
v 0.575262 0.210084 -0.197355
v 0.613597 0.462496 -0.197355
v 0.650382 0.904563 -0.197355
v 0.474761 0.569567 -0.197355
v 0.340067 0.636188 -0.197355
v 0.069129 1.007569 -0.197355
v 0.186207 0.677008 -0.197355
v 0.033383 0.692233 -0.197355
v -0.485184 0.804683 -0.197355
v -0.136539 0.539920 -0.197355
v 0.186725 0.483828 -0.197355
v -0.397635 0.389097 -0.197355
v -0.864398 0.350270 -0.197355
v 0.010072 0.063015 -0.197355
v 0.276350 0.295511 -0.197355
v 0.333853 0.137534 -0.197355
v 0.363382 0.005616 -0.197355
v 0.383583 -0.175079 -0.197355
v 0.557133 -0.220190 -0.197355
v 0.366488 -0.393933 -0.253605
v 0.366488 -0.393933 -0.197355
v 0.346284 -0.555732 -0.253605
v 0.346284 -0.555732 -0.197355
v 0.296550 -0.745752 -0.253605
v 0.296550 -0.745752 -0.197355
v 0.240086 -0.875978 -0.253605
v 0.240086 -0.875978 -0.197355
v 0.189314 -0.981586 -0.253605
v 0.189314 -0.981586 -0.197355
v 0.383583 -0.175079 -0.253605
v 0.363382 0.005616 -0.253605
v 0.363382 0.005616 -0.197355
v 0.333853 0.137534 -0.197355
v 0.383583 -0.175079 -0.197355
v 0.333853 0.137534 -0.253605
v 0.276350 0.295511 -0.197355
v 0.276350 0.295511 -0.253605
v 0.186725 0.483828 -0.197355
v 0.186725 0.483828 -0.253605
v 0.033383 0.692233 -0.197355
v 0.033383 0.692233 -0.253605
v 1.102636 0.523264 -0.197355
v 1.102636 0.523264 -0.225700
v 1.304675 -0.034153 -0.197355
v 1.102636 0.523264 -0.253605
v 1.304675 -0.034153 -0.225700
v 1.202102 -0.618338 -0.197355
v 1.304675 -0.034153 -0.253605
v 1.202102 -0.618338 -0.225700
v 0.822893 -1.072751 -0.197355
v 1.202102 -0.618338 -0.253605
v 0.822893 -1.072751 -0.225700
v 0.822893 -1.072751 -0.253605
v -0.296615 -0.770958 -0.253605
v 0.048406 -0.378662 -0.253605
v 0.048406 -0.378662 -0.197355
v -0.296615 -0.770958 -0.197355
v 0.383583 -0.175079 -0.253605
v 0.383583 -0.175079 -0.197355
v 0.557133 -0.220190 -0.253605
v 0.557133 -0.220190 -0.197355
v -0.485184 0.804683 -0.197355
v -0.485184 0.804683 -0.225700
v 0.069129 1.007569 -0.197355
v -0.485184 0.804683 -0.253605
v 0.069129 1.007569 -0.225700
v 0.650382 0.904563 -0.197355
v 0.069129 1.007569 -0.253605
v 0.650382 0.904563 -0.225700
v 1.102636 0.523264 -0.197355
v 0.650382 0.904563 -0.253605
v 1.102636 0.523264 -0.225700
v 1.102636 0.523264 -0.253605
v -0.397635 0.389097 -0.197355
v 0.010072 0.063015 -0.253605
v -0.397635 0.389097 -0.253605
v 0.010072 0.063015 -0.197355
v 0.581997 -0.454977 -0.197355
v 0.823410 -0.417140 -0.253605
v 0.581997 -0.454977 -0.253605
v 0.823410 -0.417140 -0.197355
v 0.642607 -0.734953 -0.197355
v 0.642607 -0.734953 -0.253605
v 0.504807 -0.861769 -0.197355
v 0.504807 -0.861769 -0.253605
v 0.371152 -0.932382 -0.197355
v 0.371152 -0.932382 -0.253605
v 0.189314 -0.981586 -0.197355
v 0.189314 -0.981586 -0.253605
v -0.013243 -0.873900 -0.253605
v -0.296615 -0.770958 -0.253605
v -0.296615 -0.770958 -0.197355
v -0.013243 -0.873900 -0.197355
v -0.296615 -0.770958 -0.253605
v -0.966971 -0.233909 -0.253605
v 0.048406 -0.378662 -0.253605
v -0.765450 -0.791326 -0.253605
v -0.313192 -1.172626 -0.253605
v -0.013243 -0.873900 -0.253605
v 0.189314 -0.981586 -0.253605
v 0.268057 -1.275631 -0.253605
v 0.240086 -0.875978 -0.253605
v 0.371152 -0.932382 -0.253605
v 0.296550 -0.745752 -0.253605
v 0.822893 -1.072751 -0.253605
v 0.504807 -0.861769 -0.253605
v 0.642607 -0.734953 -0.253605
v 0.731197 -0.629064 -0.253605
v 0.346284 -0.555732 -0.253605
v 1.202102 -0.618338 -0.253605
v 0.366488 -0.393933 -0.253605
v 0.823410 -0.417140 -0.253605
v 0.581997 -0.454977 -0.253605
v 0.844651 -0.241725 -0.253605
v 1.304675 -0.034153 -0.253605
v 0.839469 -0.098764 -0.253605
v 0.819782 0.091220 -0.253605
v 1.102636 0.523264 -0.253605
v 0.693898 0.351811 -0.253605
v 0.575262 0.210084 -0.253605
v 0.613597 0.462496 -0.253605
v 0.650382 0.904563 -0.253605
v 0.474761 0.569567 -0.253605
v 0.340067 0.636188 -0.253605
v 0.069129 1.007569 -0.253605
v 0.186207 0.677008 -0.253605
v 0.033383 0.692233 -0.253605
v -0.485184 0.804683 -0.253605
v -0.136539 0.539920 -0.253605
v 0.186725 0.483828 -0.253605
v -0.397635 0.389097 -0.253605
v -0.864398 0.350270 -0.253605
v 0.010072 0.063015 -0.253605
v 0.276350 0.295511 -0.253605
v 0.333853 0.137534 -0.253605
v 0.363382 0.005616 -0.253605
v 0.383583 -0.175079 -0.253605
v 0.557133 -0.220190 -0.253605
vn -0.9921 0.1253 -0.0000
vn -0.9545 -0.2982 -0.0000
vn -0.9545 -0.2983 -0.0000
vn -0.8199 -0.5725 -0.0000
vn -0.9963 -0.0864 -0.0000
vn -0.9963 -0.0861 -0.0000
vn -0.9060 0.4233 -0.0000
vn -0.9060 0.4232 -0.0000
vn -0.9060 0.4234 -0.0000
vn -0.5766 0.8171 -0.0000
vn -0.8198 -0.5726 -0.0000
vn -0.5765 0.8171 -0.0000
vn -0.5763 0.8172 -0.0000
vn -0.7653 0.6437 -0.0000
vn -0.7654 0.6436 -0.0000
vn -0.7653 0.6436 -0.0000
vn -0.7581 -0.6521 -0.0000
vn -0.7581 -0.6522 -0.0000
vn -0.9931 0.1177 -0.0000
vn -0.9992 0.0392 -0.0000
vn -0.9975 -0.0703 -0.0000
vn -0.9948 -0.1022 -0.0000
vn -0.9948 -0.1021 -0.0000
vn -0.8098 -0.5867 -0.0000
vn -0.7167 -0.6974 -0.0000
vn -0.8098 -0.5868 -0.0000
vn -0.7244 0.6894 -0.0000
vn 0.8874 -0.4610 -0.0000
vn 0.6725 -0.7401 -0.0000
vn 0.6726 -0.7400 -0.0000
vn -0.4268 -0.9043 -0.0000
vn -0.8198 -0.5727 -0.0000
vn 0.0868 -0.9962 -0.0000
vn 0.5765 -0.8171 -0.0000
vn -0.8197 -0.5727 -0.0000
vn -0.4364 -0.8998 -0.0000
vn -0.4363 -0.8998 -0.0000
vn -0.4364 -0.8997 -0.0000
vn -0.5291 -0.8486 -0.0000
vn -0.5292 -0.8485 -0.0000
vn -0.3483 -0.9374 -0.0000
vn -0.3484 -0.9374 -0.0000
vn -0.1818 -0.9833 -0.0000
vn -0.0953 -0.9954 -0.0000
vn 0.4989 -0.8667 -0.0000
vn -0.0000 -0.0000 1.0000
vn 0.8874 -0.4609 -0.0000
vn 0.9822 -0.1877 -0.0000
vn 0.9468 -0.3219 -0.0000
vn 0.9090 -0.4167 -0.0000
vn 0.9015 -0.4327 -0.0000
vn 0.9014 -0.4330 -0.0000
vn 0.7581 0.6522 -0.0000
vn 0.9863 0.1650 -0.0000
vn 0.9595 0.2817 -0.0000
vn 0.9595 0.2816 -0.0000
vn 0.9231 0.3847 -0.0000
vn 0.9231 0.3846 -0.0000
vn 0.8566 0.5160 -0.0000
vn 0.8033 0.5955 -0.0000
vn 0.9963 0.0859 -0.0000
vn 0.8199 0.5725 -0.0000
vn 0.8199 0.5726 -0.0000
vn 0.9061 -0.4231 -0.0000
vn 0.9060 -0.4232 -0.0000
vn 0.5766 -0.8170 -0.0000
vn 0.9060 -0.4233 -0.0000
vn 0.7509 -0.6604 -0.0000
vn 0.2530 0.9675 -0.0000
vn 0.7581 0.6521 -0.0000
vn -0.0868 0.9962 -0.0000
vn -0.5764 0.8171 -0.0000
vn -0.0869 0.9962 -0.0000
vn -0.5764 0.8172 -0.0000
vn 0.4269 0.9043 -0.0000
vn 0.4268 0.9043 -0.0000
vn 0.8197 0.5727 -0.0000
vn 0.8198 0.5727 -0.0000
vn 0.6257 0.7801 -0.0000
vn -0.1587 0.9873 -0.0000
vn -0.1588 0.9873 -0.0000
vn -0.5766 0.8170 -0.0000
vn -0.7244 0.6893 -0.0000
vn -0.3648 0.9311 -0.0000
vn -0.3649 0.9311 -0.0000
vn -0.2604 0.9655 -0.0000
vn 0.3414 0.9399 -0.0000
vn -0.0000 -0.0000 -1.0000
vt 46.007801 -6.941270
vt 46.007801 -6.822380
vt 45.992199 -6.822380
vt 45.992199 -6.941270
vt 46.007801 -7.161800
vt 46.007801 -7.047310
vt 45.992199 -7.047310
vt 45.992199 -7.161800
vt 46.007801 -6.842200
vt 46.000000 -6.976020
vt 46.007801 -6.976020
vt 46.000000 -7.116270
vt 46.007801 -7.116270
vt 46.000000 -6.842200
vt 45.992199 -7.116270
vt 45.992199 -6.976020
vt 45.992199 -7.225360
vt 45.992199 -6.842200
vt 46.000000 -7.225360
vt 46.007801 -7.225360
vt 46.007801 -7.116640
vt 46.007801 -7.082610
vt 45.992199 -7.082610
vt 45.992199 -7.116640
vt 46.007801 -6.922950
vt 46.007801 -6.881160
vt 45.992199 -6.881160
vt 45.992199 -6.922950
vt 45.992199 -6.932030
vt 46.007801 -6.974150
vt 46.007801 -6.932030
vt 45.992199 -6.974150
vt 46.007801 -7.008470
vt 45.992199 -7.008470
vt 46.007801 -7.054080
vt 45.992199 -7.054080
vt 46.007801 -7.143210
vt 45.992199 -7.143210
vt 45.992199 -6.855740
vt 46.007801 -6.855740
vt 46.047699 -7.007830
vt 46.093700 -7.007830
vt 46.093700 -6.992170
vt 46.047699 -6.992170
vt 45.883701 -7.007830
vt 45.774601 -7.000000
vt 45.774601 -7.007830
vt 46.023998 -6.992170
vt 46.157799 -7.000000
vt 46.157799 -6.992170
vt 46.023998 -7.000000
vt 46.157799 -7.007830
vt 45.883701 -6.992170
vt 46.023998 -7.007830
vt 45.883701 -7.000000
vt 45.774601 -6.992170
vt 46.098099 -7.007830
vt 46.157101 -7.007830
vt 46.157101 -6.992170
vt 46.098099 -6.992170
vt 46.073898 -7.007830
vt 46.107300 -7.007830
vt 46.107300 -6.992170
vt 46.073898 -6.992170
vt 46.041302 -7.007830
vt 46.041302 -6.992170
vt 46.004200 -7.007830
vt 46.004200 -6.992170
vt 45.967300 -7.007830
vt 45.967300 -6.992170
vt 45.863300 -7.007830
vt 45.926399 -7.007830
vt 45.926399 -6.992170
vt 45.863300 -6.992170
vt 46.274101 -6.976020
vt 46.112301 -6.847090
vt 46.028999 -6.941270
vt 46.225399 -6.842200
vt 46.116299 -6.750660
vt 46.043900 -6.822380
vt 45.994999 -6.796520
vt 45.976002 -6.725930
vt 45.982700 -6.821880
vt 45.951099 -6.808340
vt 45.969200 -6.853140
vt 45.842201 -6.774640
vt 45.918900 -6.825290
vt 45.885700 -6.855740
vt 45.864300 -6.881160
vt 45.957199 -6.898760
vt 45.750702 -6.883730
vt 45.952301 -6.937600
vt 45.841999 -6.932030
vt 45.900200 -6.922950
vt 45.837002 -6.974150
vt 45.725899 -7.023980
vt 45.838200 -7.008470
vt 45.842899 -7.054080
vt 45.774601 -7.157800
vt 45.873299 -7.116640
vt 45.901901 -7.082610
vt 45.892700 -7.143210
vt 45.883701 -7.249340
vt 45.926102 -7.168910
vt 45.958698 -7.184910
vt 46.023998 -7.274070
vt 45.995800 -7.194710
vt 46.032700 -7.198370
vt 46.157799 -7.225360
vt 46.073601 -7.161800
vt 45.995701 -7.148330
vt 46.136700 -7.125590
vt 46.249298 -7.116270
vt 46.038300 -7.047310
vt 45.973999 -7.103120
vt 45.960201 -7.065200
vt 45.952999 -7.033530
vt 45.948200 -6.990150
vt 45.906300 -6.979320
vt 46.007801 -6.937600
vt 45.992199 -6.898760
vt 45.992199 -6.937600
vt 46.007801 -6.898760
vt 45.992199 -6.853140
vt 46.007801 -6.853140
vt 45.992199 -6.821880
vt 46.007801 -6.821880
vt 45.992199 -6.796520
vt 46.007801 -6.796520
vt 45.992199 -6.990150
vt 45.992199 -7.033530
vt 46.007801 -7.033530
vt 46.007801 -7.065200
vt 46.007801 -6.990150
vt 45.992199 -7.065200
vt 46.007801 -7.103120
vt 45.992199 -7.103120
vt 46.007801 -7.148330
vt 45.992199 -7.148330
vt 46.007801 -7.198370
vt 45.992199 -7.198370
vt 46.007801 -7.023980
vt 46.000000 -7.157800
vt 46.007801 -7.157800
vt 46.000000 -7.023980
vt 45.992199 -7.157800
vt 46.007801 -6.883730
vt 45.992199 -7.023980
vt 46.000000 -6.883730
vt 46.007801 -6.774640
vt 45.992199 -6.883730
vt 46.000000 -6.774640
vt 45.992199 -6.774640
vt 45.992199 -6.847090
vt 46.007801 -6.847090
vt 45.906300 -7.007830
vt 45.948200 -7.007830
vt 45.948200 -6.992170
vt 45.906300 -6.992170
vt 46.136700 -6.992170
vt 46.038300 -7.007830
vt 46.136700 -7.007830
vt 46.038300 -6.992170
vt 45.900200 -6.992170
vt 45.841999 -7.007830
vt 45.900200 -7.007830
vt 45.841999 -6.992170
vt 45.885700 -7.007830
vt 45.918900 -6.992170
vt 45.885700 -6.992170
vt 45.918900 -7.007830
vt 45.951099 -6.992170
vt 45.951099 -7.007830
vt 45.994999 -6.992170
vt 45.994999 -7.007830
vt 46.043900 -7.007830
vt 46.112301 -7.007830
vt 46.112301 -6.992170
vt 46.043900 -6.992170
vt 45.887699 -6.847090
vt 45.725899 -6.976020
vt 45.971001 -6.941270
vt 45.774601 -6.842200
vt 45.883701 -6.750660
vt 45.956100 -6.822380
vt 46.005001 -6.796520
vt 46.023998 -6.725930
vt 46.017300 -6.821880
vt 46.048901 -6.808340
vt 46.030800 -6.853140
vt 46.157799 -6.774640
vt 46.081100 -6.825290
vt 46.114300 -6.855740
vt 46.135700 -6.881160
vt 46.042801 -6.898760
vt 46.249298 -6.883730
vt 46.047699 -6.937600
vt 46.158001 -6.932030
vt 46.099800 -6.922950
vt 46.162998 -6.974150
vt 46.274101 -7.023980
vt 46.161800 -7.008470
vt 46.157101 -7.054080
vt 46.225399 -7.157800
vt 46.126701 -7.116640
vt 46.098099 -7.082610
vt 46.107300 -7.143210
vt 46.116299 -7.249340
vt 46.073898 -7.168910
vt 46.041302 -7.184910
vt 45.976002 -7.274070
vt 46.004200 -7.194710
vt 45.967300 -7.198370
vt 45.842201 -7.225360
vt 45.926399 -7.161800
vt 46.004299 -7.148330
vt 45.863300 -7.125590
vt 45.750702 -7.116270
vt 45.961700 -7.047310
vt 46.026001 -7.103120
vt 46.039799 -7.065200
vt 46.047001 -7.033530
vt 46.051800 -6.990150
vt 46.093700 -6.979320
s 1
usemtl Blade1Mtl
f 1/1/1 2/2/1 3/3/1
f 1/1/1 3/3/1 4/4/1
f 5/5/2 6/6/3 7/7/3
f 5/5/2 7/7/3 8/8/2
f 9/9/4 10/10/5 11/11/6
f 12/12/7 11/11/6 10/10/5
f 11/11/6 12/12/7 13/13/8
f 10/10/5 9/9/4 14/14/4
f 10/10/5 15/15/9 12/12/7
f 15/15/9 10/10/5 16/16/6
f 14/14/4 16/16/6 10/10/5
f 17/17/10 12/12/7 15/15/9
f 16/16/6 14/14/4 18/18/11
f 12/12/7 17/17/10 19/19/12
f 19/19/12 13/13/8 12/12/7
f 13/13/8 19/19/12 20/20/13
f 21/21/14 22/22/15 23/23/16
f 21/21/14 23/23/16 24/24/14
f 25/25/17 26/26/17 27/27/18
f 25/25/17 27/27/18 28/28/18
f 29/29/19 30/30/20 31/31/19
f 30/30/20 29/29/19 32/32/20
f 32/32/20 33/33/21 30/30/20
f 33/33/21 32/32/20 34/34/21
f 35/35/22 33/33/21 34/34/21
f 35/35/22 34/34/21 36/36/23
f 37/24/24 38/37/25 39/21/26
f 38/37/25 37/24/24 40/38/25
f 41/39/27 42/26/14 43/40/27
f 42/26/14 41/39/27 44/27/14
f 45/41/28 46/42/29 47/43/30
f 45/41/28 47/43/30 48/44/28
f 51/45/31 50/46/32 49/47/11
f 55/48/33 54/49/34 53/50/34
f 54/49/34 55/48/33 57/51/33
f 57/51/33 56/52/34 54/49/34
f 58/53/31 57/51/33 55/48/33
f 56/52/34 57/51/33 59/54/33
f 57/51/33 58/53/31 60/55/31
f 60/55/31 59/54/33 57/51/33
f 52/56/35 60/55/31 58/53/31
f 59/54/33 60/55/31 51/45/31
f 60/55/31 52/56/35 50/46/32
f 50/46/32 51/45/31 60/55/31
f 61/57/36 62/58/37 63/59/37
f 61/57/36 63/59/37 64/60/38
f 67/61/39 65/62/25 66/63/25
f 67/61/39 66/63/25 68/64/40
f 69/65/41 67/61/39 68/64/40
f 69/65/41 68/64/40 70/66/42
f 70/66/42 71/67/43 69/65/41
f 71/67/43 70/66/42 72/68/43
f 73/69/44 71/67/43 72/68/43
f 73/69/44 72/68/43 74/70/44
f 75/71/45 76/72/45 77/73/45
f 75/71/45 77/73/45 78/74/45
f 79/75/46 80/76/46 81/77/46
f 80/76/46 79/75/46 82/78/46
f 83/79/46 80/76/46 82/78/46
f 80/76/46 83/79/46 84/80/46
f 83/79/46 85/81/46 84/80/46
f 85/81/46 83/79/46 86/82/46
f 87/83/46 84/80/46 85/81/46
f 86/82/46 88/84/46 85/81/46
f 89/85/46 84/80/46 87/83/46
f 89/85/46 81/77/46 84/80/46
f 90/86/46 88/84/46 86/82/46
f 88/84/46 90/86/46 91/87/46
f 90/86/46 92/88/46 91/87/46
f 90/86/46 93/89/46 92/88/46
f 81/77/46 89/85/46 94/90/46
f 93/89/46 90/86/46 95/91/46
f 96/92/46 81/77/46 94/90/46
f 95/91/46 97/93/46 93/89/46
f 98/94/46 93/89/46 97/93/46
f 95/91/46 99/95/46 97/93/46
f 100/96/46 99/95/46 95/91/46
f 99/95/46 100/96/46 101/97/46
f 101/97/46 100/96/46 102/98/46
f 103/99/46 102/98/46 100/96/46
f 102/98/46 103/99/46 104/100/46
f 105/101/46 102/98/46 104/100/46
f 104/100/46 103/99/46 106/102/46
f 107/103/46 106/102/46 103/99/46
f 106/102/46 107/103/46 108/104/46
f 107/103/46 109/105/46 108/104/46
f 109/105/46 107/103/46 110/106/46
f 110/106/46 111/107/46 109/105/46
f 110/106/46 112/108/46 111/107/46
f 110/106/46 113/109/46 112/108/46
f 114/110/46 112/108/46 113/109/46
f 112/108/46 114/110/46 115/111/46
f 113/109/46 116/112/46 114/110/46
f 116/112/46 113/109/46 117/113/46
f 79/75/46 116/112/46 117/113/46
f 118/114/46 115/111/46 114/110/46
f 116/112/46 79/75/46 118/114/46
f 115/111/46 118/114/46 119/115/46
f 119/115/46 118/114/46 120/116/46
f 118/114/46 121/117/46 120/116/46
f 118/114/46 79/75/46 81/77/46
f 121/117/46 118/114/46 122/118/46
f 81/77/46 122/118/46 118/114/46
f 122/118/46 81/77/46 96/92/46
f 96/92/46 123/119/46 122/118/46
f 125/120/47 126/121/48 124/122/28
f 126/121/48 125/120/47 127/123/48
f 128/124/49 126/121/48 127/123/48
f 128/124/49 127/123/48 129/125/49
f 130/126/50 128/124/49 129/125/49
f 130/126/50 129/125/49 131/127/50
f 131/127/50 132/128/51 130/126/50
f 132/128/51 131/127/50 133/129/52
f 134/130/53 135/131/54 136/132/54
f 135/131/54 137/133/55 136/132/54
f 134/130/53 136/132/54 138/134/53
f 135/131/54 139/135/56 137/133/55
f 139/135/56 140/136/57 137/133/55
f 139/135/56 141/137/58 140/136/57
f 141/137/58 142/138/59 140/136/57
f 141/137/58 143/139/59 142/138/59
f 143/139/59 144/140/60 142/138/59
f 143/139/59 145/141/60 144/140/60
f 148/142/61 147/143/62 146/144/63
f 147/143/62 148/142/61 150/145/61
f 150/145/61 149/146/62 147/143/62
f 151/147/64 150/145/61 148/142/61
f 149/146/62 150/145/61 152/148/61
f 150/145/61 151/147/64 153/149/65
f 153/149/65 152/148/61 150/145/61
f 154/150/66 153/149/65 151/147/64
f 152/148/61 153/149/65 155/151/67
f 153/149/65 154/150/66 156/152/66
f 156/152/66 155/151/67 153/149/65
f 155/151/67 156/152/66 157/153/66
f 158/154/68 159/4/68 160/1/68
f 158/154/68 160/1/68 161/155/68
f 164/156/69 162/157/70 163/158/70
f 164/156/69 163/158/70 165/159/69
f 168/48/71 167/49/72 166/50/12
f 167/49/72 168/48/71 170/51/73
f 170/51/73 169/52/74 167/49/72
f 171/53/75 170/51/73 168/48/71
f 169/52/74 170/51/73 172/54/73
f 170/51/73 171/53/75 173/55/76
f 173/55/76 172/54/73 170/51/73
f 174/56/77 173/55/76 171/53/75
f 172/54/73 173/55/76 175/45/76
f 173/55/76 174/56/77 176/46/78
f 176/46/78 175/45/76 173/55/76
f 175/45/76 176/46/78 177/47/63
f 178/160/79 179/161/79 180/162/79
f 179/161/79 178/160/79 181/163/79
f 182/164/80 183/165/80 184/166/80
f 183/165/80 182/164/80 185/167/81
f 187/168/27 188/169/82 186/170/83
f 187/168/27 189/171/82 188/169/82
f 189/171/82 190/172/84 188/169/82
f 189/171/82 191/173/85 190/172/84
f 191/173/85 192/174/86 190/172/84
f 192/174/86 191/173/85 193/175/86
f 194/176/87 195/177/87 196/178/87
f 194/176/87 196/178/87 197/179/87
f 198/180/88 199/181/88 200/182/88
f 199/181/88 198/180/88 201/183/88
f 202/184/88 201/183/88 198/180/88
f 198/180/88 203/185/88 202/184/88
f 203/185/88 204/186/88 202/184/88
f 205/187/88 202/184/88 204/186/88
f 204/186/88 203/185/88 206/188/88
f 205/187/88 204/186/88 207/189/88
f 206/188/88 203/185/88 208/190/88
f 200/182/88 208/190/88 203/185/88
f 207/189/88 209/191/88 205/187/88
f 209/191/88 207/189/88 210/192/88
f 211/193/88 209/191/88 210/192/88
f 212/194/88 209/191/88 211/193/88
f 208/190/88 200/182/88 213/195/88
f 209/191/88 212/194/88 214/196/88
f 200/182/88 215/197/88 213/195/88
f 216/198/88 214/196/88 212/194/88
f 217/199/88 216/198/88 212/194/88
f 218/200/88 214/196/88 216/198/88
f 214/196/88 218/200/88 219/201/88
f 220/202/88 219/201/88 218/200/88
f 221/203/88 219/201/88 220/202/88
f 219/201/88 221/203/88 222/204/88
f 221/203/88 223/205/88 222/204/88
f 223/205/88 221/203/88 224/206/88
f 222/204/88 223/205/88 225/207/88
f 225/207/88 226/208/88 222/204/88
f 226/208/88 225/207/88 227/209/88
f 228/210/88 226/208/88 227/209/88
f 226/208/88 228/210/88 229/211/88
f 229/211/88 228/210/88 230/212/88
f 229/211/88 230/212/88 231/213/88
f 231/213/88 232/214/88 229/211/88
f 232/214/88 231/213/88 233/215/88
f 234/216/88 233/215/88 231/213/88
f 235/217/88 232/214/88 233/215/88
f 236/218/88 232/214/88 235/217/88
f 235/217/88 199/181/88 236/218/88
f 234/216/88 237/219/88 233/215/88
f 237/219/88 199/181/88 235/217/88
f 238/220/88 237/219/88 234/216/88
f 237/219/88 238/220/88 239/221/88
f 240/222/88 237/219/88 239/221/88
f 200/182/88 199/181/88 237/219/88
f 241/223/88 237/219/88 240/222/88
f 237/219/88 241/223/88 200/182/88
f 215/197/88 200/182/88 241/223/88
f 241/223/88 242/224/88 215/197/88
