# Blender 5.1.2
# www.blender.org
mtllib pxl mag.mtl
o pxl_mag
v 0.112907 -0.204844 0.120038
v 0.112907 -0.170312 -0.087154
v 0.112907 -0.170312 0.085506
v 0.112907 -0.170312 0.120038
v 0.112907 -0.204844 -0.121686
v 0.112907 -0.170312 -0.121686
v 0.112907 0.140476 0.085506
v 0.112907 0.140476 -0.087154
v 0.112907 0.140476 -0.087154
v -0.025221 0.140476 -0.087154
v 0.112907 0.140476 0.085506
v -0.025221 0.140476 0.085506
v -0.025221 0.036880 0.085506
v -0.025221 0.036880 -0.087154
v -0.059754 0.036880 -0.087154
v -0.059754 0.036880 0.085506
v -0.059754 -0.170312 0.085506
v -0.059754 -0.170312 -0.087154
v -0.094285 -0.170312 -0.087154
v -0.094285 -0.170312 0.085506
v 0.112907 -0.170312 -0.087154
v -0.059754 -0.170312 -0.121686
v 0.112907 -0.170312 -0.121686
v 0.112907 -0.170312 0.085506
v 0.112907 -0.170312 0.120038
v -0.059754 -0.170312 0.120038
v -0.059754 -0.204844 0.120038
v 0.112907 -0.204844 0.120038
v 0.112907 -0.170312 0.120038
v -0.059754 -0.170312 0.120038
v -0.094285 -0.204844 0.085506
v -0.059754 -0.204844 0.085506
v -0.059754 -0.170312 0.085506
v -0.094285 -0.170312 0.085506
v -0.025221 0.036880 0.085506
v -0.059754 0.036880 0.085506
v 0.112907 -0.170312 0.085506
v 0.112907 0.140476 0.085506
v -0.025221 0.140476 0.085506
v -0.094285 -0.204844 -0.087154
v -0.094285 -0.204844 0.085506
v -0.094285 -0.170312 -0.087154
v -0.094285 -0.170312 0.085506
v -0.059754 -0.170312 0.085506
v -0.059754 -0.204844 0.085506
v -0.059754 -0.204844 0.120038
v -0.059754 -0.170312 0.120038
v -0.059754 0.036880 -0.087154
v -0.059754 0.036880 0.085506
v -0.059754 -0.170312 -0.087154
v -0.059754 -0.170312 -0.121686
v -0.059754 -0.204844 -0.087154
v -0.059754 -0.204844 -0.121686
v -0.025221 0.140476 -0.087154
v -0.025221 0.036880 -0.087154
v -0.025221 0.036880 0.085506
v -0.025221 0.140476 0.085506
v -0.059754 -0.204844 -0.087154
v -0.094285 -0.204844 0.085506
v -0.094285 -0.204844 -0.087154
v -0.059754 -0.204844 0.085506
v 0.112907 -0.204844 0.120038
v -0.059754 -0.204844 0.120038
v 0.112907 -0.204844 -0.121686
v -0.059754 -0.204844 -0.121686
v -0.059754 -0.170312 -0.121686
v 0.112907 -0.170312 -0.121686
v 0.112907 -0.204844 -0.121686
v -0.059754 -0.204844 -0.121686
v -0.025221 0.036880 -0.087154
v -0.025221 0.140476 -0.087154
v 0.112907 0.140476 -0.087154
v 0.112907 -0.170312 -0.087154
v -0.059754 -0.170312 -0.087154
v -0.059754 0.036880 -0.087154
v -0.059754 -0.204844 -0.087154
v -0.094285 -0.170312 -0.087154
v -0.094285 -0.204844 -0.087154
vn 1.0000 -0.0000 -0.0000
vn -0.0000 1.0000 -0.0000
vn -0.0000 -0.0000 1.0000
vn -1.0000 -0.0000 -0.0000
vn -0.0000 -1.0000 -0.0000
vn -0.0000 -0.0000 -1.0000
vt 3.940750 -33.084599
vt 4.042320 -33.067699
vt 3.957680 -33.067699
vt 3.940750 -33.067699
vt 4.059250 -33.084599
vt 4.059250 -33.067699
vt 3.957680 -32.915401
vt 4.042320 -32.915401
vt 3.949220 -33.042301
vt 4.016930 -33.042301
vt 3.949220 -32.957699
vt 4.016930 -32.957699
vt 4.033850 -33.042301
vt 4.033850 -32.957699
vt 4.050780 -33.042301
vt 4.050780 -32.957699
vt 4.033850 -33.059200
vt 3.949220 -33.059200
vt 3.949220 -32.940800
vt 4.033850 -32.940800
vt 3.966150 -33.084599
vt 4.050780 -33.084599
vt 4.050780 -33.067699
vt 3.966150 -33.067699
vt 3.949220 -33.084599
vt 3.949220 -33.067699
vt 3.983070 -32.966099
vt 3.966150 -32.966099
vt 4.050780 -32.915401
vt 3.983070 -32.915401
vt 3.957680 -33.084599
vt 4.042320 -33.084599
vt 3.957680 -32.966099
vt 4.042320 -32.966099
vt 3.966150 -33.042301
vt 3.966150 -32.957699
vt 4.050780 -32.940800
vt 3.966150 -32.940800
vt 4.050780 -33.059200
vt 3.966150 -33.059200
vt 4.033850 -33.067699
vt 4.033850 -33.084599
vt 4.016930 -32.966099
vt 4.016930 -32.915401
vt 3.949220 -32.915401
vt 4.033850 -32.966099
s 1
usemtl Meshpart1Mtl
f 1/1/1 2/2/1 3/3/1
f 3/3/1 4/4/1 1/1/1
f 2/2/1 1/1/1 5/5/1
f 2/2/1 5/5/1 6/6/1
f 7/7/1 3/3/1 2/2/1
f 2/2/1 8/8/1 7/7/1
f 9/9/2 10/10/2 11/11/2
f 10/10/2 12/12/2 11/11/2
f 13/12/2 14/10/2 15/13/2
f 15/13/2 16/14/2 13/12/2
f 17/14/2 18/13/2 19/15/2
f 19/15/2 20/16/2 17/14/2
f 18/13/2 21/9/2 22/17/2
f 23/18/2 22/17/2 21/9/2
f 24/11/2 17/14/2 25/19/2
f 26/20/2 25/19/2 17/14/2
f 27/21/3 28/22/3 29/23/3
f 27/21/3 29/23/3 30/24/3
f 31/25/3 32/21/3 33/24/3
f 31/25/3 33/24/3 34/26/3
f 33/24/3 35/27/3 36/28/3
f 35/27/3 33/24/3 37/23/3
f 37/23/3 38/29/3 35/27/3
f 39/30/3 35/27/3 38/29/3
f 40/31/4 41/32/4 42/3/4
f 42/3/4 41/32/4 43/2/4
f 44/2/4 45/32/4 46/5/4
f 44/2/4 46/5/4 47/6/4
f 48/33/4 44/2/4 49/34/4
f 48/33/4 50/3/4 44/2/4
f 51/4/4 52/31/4 50/3/4
f 51/4/4 53/1/4 52/31/4
f 54/7/4 55/33/4 56/34/4
f 54/7/4 56/34/4 57/8/4
f 58/35/5 59/11/5 60/9/5
f 61/36/5 59/11/5 58/35/5
f 58/35/5 62/37/5 61/36/5
f 62/37/5 63/38/5 61/36/5
f 58/35/5 64/39/5 62/37/5
f 64/39/5 58/35/5 65/40/5
f 66/41/6 67/26/6 68/25/6
f 66/41/6 68/25/6 69/42/6
f 70/43/6 71/44/6 72/45/6
f 72/45/6 73/26/6 70/43/6
f 74/41/6 70/43/6 73/26/6
f 70/43/6 74/41/6 75/46/6
f 74/41/6 76/42/6 77/23/6
f 77/23/6 76/42/6 78/22/6
