# Blender 5.1.2
# www.blender.org
mtllib singularitybody2.mtl
o singularityblackthing
v -0.649505 0.156599 0.226348
v -0.649505 0.287282 0.261364
v -0.712009 0.180580 0.184812
v -0.712009 0.287282 0.213403
v -0.576717 0.287282 0.291513
v -0.649505 0.060934 0.130682
v -0.649505 0.417964 0.226348
v -0.759970 0.211832 0.130682
v -0.576717 0.141525 0.252458
v -0.712009 0.393983 0.184812
v -0.759970 0.362731 0.130682
v -0.576717 0.433039 0.252458
v -0.759970 0.287281 0.150898
v -0.712009 0.472093 0.106701
v -0.649505 0.513629 0.130682
v -0.576717 0.539739 0.145757
v -0.498606 0.287282 0.301797
v -0.498606 0.548645 0.150898
v -0.498606 0.438181 0.261364
v -0.420496 0.433039 0.252458
v -0.498606 0.136384 0.261364
v -0.420496 0.539739 0.145757
v -0.498606 0.589078 -0.000000
v -0.576717 0.578795 -0.000000
v -0.649505 0.548645 -0.000000
v -0.712009 0.500684 -0.000000
v -0.649505 0.513629 -0.130682
v -0.712009 0.472093 -0.106701
v -0.576717 0.539739 -0.145757
v -0.759970 0.438180 -0.000000
v -0.759970 0.417964 0.075449
v -0.759970 0.417964 -0.075449
v -0.790120 0.326337 0.067646
v -0.790120 0.365392 -0.000000
v -0.790120 0.354927 0.039055
v -0.790120 0.287281 0.078111
v -0.800403 0.287281 0.000000
v -0.790120 0.354927 -0.039055
v -0.790120 0.248226 0.067646
v -0.790120 0.326337 -0.067646
v -0.759970 0.362731 -0.130682
v -0.790120 0.219635 0.039055
v -0.712009 0.393983 -0.184812
v -0.759970 0.287281 -0.150898
v -0.649505 0.417963 -0.226348
v -0.790120 0.287281 -0.078111
v -0.790120 0.248226 -0.067646
v -0.790120 0.209171 0.000000
v -0.712009 0.287281 -0.213403
v -0.759970 0.211832 -0.130682
v -0.790120 0.219635 -0.039055
v -0.759970 0.136383 0.000000
v -0.759970 0.156599 0.075449
v -0.759970 0.156599 -0.075449
v -0.712009 0.073879 0.000000
v -0.712009 0.102470 0.106701
v -0.712009 0.102469 -0.106701
v -0.649505 0.025918 0.000000
v -0.712009 0.180580 -0.184812
v -0.649505 0.060934 -0.130682
v -0.576717 -0.004232 0.000000
v -0.576717 0.034823 0.145757
v -0.649505 0.287281 -0.261364
v -0.649505 0.156600 -0.226348
v -0.576717 0.287281 -0.291513
v -0.576717 0.141525 -0.252458
v -0.576717 0.034823 -0.145757
v -0.498606 -0.014516 0.000000
v -0.498606 0.025918 -0.150898
v -0.498606 0.136383 -0.261364
v -0.498606 0.287281 -0.301797
v -0.576717 0.433038 -0.252458
v -0.420496 0.141525 -0.252458
v -0.420496 0.034823 -0.145757
v -0.498606 0.438180 -0.261364
v -0.498606 0.548645 -0.150898
v -0.420496 0.433038 -0.252458
v -0.420496 0.287281 -0.291513
v -0.420496 0.539739 -0.145757
v -0.347708 0.417963 -0.226348
v -0.347708 0.156599 -0.226348
v -0.347708 0.287281 -0.261364
v -0.420496 0.578795 -0.000000
v -0.347708 0.513629 -0.130682
v -0.285204 0.393983 -0.184812
v -0.285204 0.180580 -0.184812
v -0.347708 0.513629 0.130682
v -0.347708 0.548645 -0.000000
v -0.285204 0.472093 -0.106701
v -0.285204 0.500684 -0.000000
v -0.347708 0.417964 0.226348
v -0.285204 0.472093 0.106701
v -0.285204 0.393983 0.184812
v -0.420496 0.287282 0.291513
v -0.206454 0.417804 -0.000000
v -0.347708 0.287282 0.261364
v -0.420496 0.141525 0.252458
v -0.347708 0.156599 0.226348
v -0.285204 0.287282 0.213403
v -0.285204 0.180580 0.184812
v -0.498606 0.025918 0.150898
v -0.420496 0.034823 0.145757
v -0.420496 -0.004232 0.000000
v -0.347708 0.060934 0.130682
v -0.285204 0.102470 0.106701
v -0.347708 0.060934 -0.130682
v -0.347708 0.025918 0.000000
v -0.285204 0.102469 -0.106701
v -0.285204 0.073879 0.000000
v -0.206454 0.156759 0.000000
v -0.206454 0.222020 -0.113036
v -0.206454 0.222020 0.113036
v -0.206454 0.174246 0.065261
v -0.206454 0.287281 0.130522
v -0.109563 0.245872 0.071723
v -0.109563 0.215558 0.041409
v -0.206454 0.352542 0.113036
v -0.109563 0.287281 0.082819
v -0.206454 0.400317 0.065261
v -0.109563 0.328691 0.071723
v -0.109563 0.359004 0.041409
v 0.031068 0.308417 0.036607
v 0.031068 0.266146 0.036607
v 0.031068 0.287281 0.042271
v 0.031068 0.323889 0.021135
v -0.109563 0.370100 -0.000000
v 0.243170 0.294907 0.013208
v 0.243170 0.279656 0.013208
v 0.031068 0.250674 0.021135
v -0.109563 0.204463 0.000000
v 0.243170 0.287281 0.015251
v 0.352051 0.291084 0.006586
v 0.352051 0.283479 0.006586
v 0.243170 0.274074 0.007626
v 0.031068 0.245011 0.000000
v 0.243170 0.272030 0.000000
v 0.352051 0.287281 0.007605
v 0.352051 0.280695 0.003802
v 1.231262 0.284238 0.001757
v 0.352051 0.279677 0.000000
v 1.231262 0.285524 0.003043
v 1.231262 0.287281 0.003514
v 1.236775 0.286216 0.001845
v 1.231262 0.289038 0.003043
v 1.236775 0.287281 0.002130
v 1.236775 0.285437 0.001065
v 1.236775 0.288346 0.001845
v 1.236775 0.289126 0.001065
v 1.236775 0.289411 -0.000000
v 1.231262 0.290324 0.001757
v 1.231262 0.290795 -0.000000
v 0.352051 0.293867 0.003802
v 0.352051 0.294886 -0.000000
v 0.243170 0.300489 0.007626
v 0.243170 0.302532 -0.000000
v 0.031068 0.329552 -0.000000
v 0.352051 0.293867 -0.003802
v 0.243170 0.300489 -0.007625
v 0.031068 0.323889 -0.021135
v -0.109563 0.359005 -0.041409
v 1.231262 0.290324 -0.001757
v 0.352051 0.291084 -0.006586
v 1.236775 0.289126 -0.001065
v 1.231262 0.289038 -0.003043
v 1.236775 0.288346 -0.001845
v 1.236775 0.287281 -0.002130
v 1.236775 0.285437 -0.001065
v 1.231262 0.287281 -0.003514
v 1.236775 0.286216 -0.001845
v 0.352051 0.287281 -0.007605
v 1.231262 0.285524 -0.003043
v 1.231262 0.284238 -0.001757
v 1.236775 0.285151 0.000000
v 1.231262 0.283768 0.000000
v 0.352051 0.283479 -0.006586
v 0.352051 0.280695 -0.003802
v 0.243170 0.274074 -0.007625
v 0.243170 0.287281 -0.015251
v 0.243170 0.279656 -0.013208
v 0.031068 0.250674 -0.021135
v 0.243170 0.294907 -0.013208
v 0.031068 0.287281 -0.042271
v 0.031068 0.308417 -0.036607
v 0.031068 0.266146 -0.036607
v -0.109563 0.287281 -0.082819
v -0.109563 0.328691 -0.071723
v -0.109563 0.215558 -0.041409
v -0.109563 0.245872 -0.071723
v -0.206454 0.174246 -0.065261
v -0.206454 0.287281 -0.130522
v -0.285204 0.287281 -0.213403
v -0.206454 0.352542 -0.113035
v -0.206454 0.400317 -0.065261
vn -0.4909 -0.4353 0.7547
vn -0.4910 0.0005 0.8711
vn -0.6961 -0.3590 0.6217
vn -0.6963 0.0004 0.7178
vn -0.2534 0.0006 0.9674
vn -0.4909 -0.7547 0.4353
vn -0.4909 0.4353 0.7547
vn -0.8564 -0.2584 0.4470
vn -0.2536 -0.4837 0.8377
vn -0.6961 0.3590 0.6217
vn -0.8565 0.2583 0.4469
vn -0.2536 0.4837 0.8377
vn -0.8564 0.0005 0.5163
vn -0.6961 0.6217 0.3590
vn -0.4909 0.7547 0.4353
vn -0.2536 0.8377 0.4837
vn 0.0004 0.0004 1.0000
vn 0.0003 0.8661 0.4999
vn 0.0004 0.4998 0.8661
vn 0.2536 0.4837 0.8377
vn 0.0004 -0.4998 0.8661
vn 0.2535 0.8376 0.4839
vn 0.0004 1.0000 0.0004
vn -0.2534 0.9674 0.0007
vn -0.4910 0.8711 0.0006
vn -0.6963 0.7178 0.0004
vn -0.4909 0.7547 -0.4353
vn -0.6961 0.6217 -0.3590
vn -0.2536 0.8377 -0.4837
vn -0.8563 0.5164 0.0006
vn -0.8564 0.4470 0.2584
vn -0.8564 0.4470 -0.2584
vn -0.9602 0.1393 0.2419
vn -0.9603 0.2790 0.0004
vn -0.9602 0.2420 0.1392
vn -0.9603 0.0005 0.2790
vn -1.0000 0.0003 0.0003
vn -0.9603 0.2418 -0.1393
vn -0.9603 -0.1394 0.2415
vn -0.9603 0.1393 -0.2418
vn -0.8565 0.2583 -0.4469
vn -0.9602 -0.2419 0.1393
vn -0.6961 0.3590 -0.6217
vn -0.8563 0.0005 -0.5164
vn -0.4909 0.4353 -0.7547
vn -0.9603 0.0005 -0.2790
vn -0.9603 -0.1393 -0.2418
vn -0.9603 -0.2790 0.0005
vn -0.6963 0.0004 -0.7178
vn -0.8565 -0.2583 -0.4469
vn -0.9602 -0.2419 -0.1393
vn -0.8563 -0.5164 0.0006
vn -0.8565 -0.4469 0.2583
vn -0.8564 -0.4470 -0.2584
vn -0.6963 -0.7178 0.0004
vn -0.6962 -0.6216 0.3589
vn -0.6961 -0.6217 -0.3590
vn -0.4910 -0.8711 0.0006
vn -0.6961 -0.3590 -0.6217
vn -0.4909 -0.7547 -0.4352
vn -0.2534 -0.9674 0.0005
vn -0.2536 -0.8377 0.4837
vn -0.4910 0.0005 -0.8711
vn -0.4909 -0.4356 -0.7545
vn -0.2534 0.0006 -0.9674
vn -0.2536 -0.4837 -0.8377
vn -0.2536 -0.8377 -0.4837
vn 0.0004 -1.0000 0.0004
vn -0.0000 -0.8660 -0.5000
vn 0.0005 -0.4998 -0.8662
vn 0.0004 0.0004 -1.0000
vn -0.2536 0.4837 -0.8377
vn 0.2536 -0.4837 -0.8377
vn 0.2536 -0.8377 -0.4837
vn 0.0004 0.4998 -0.8661
vn -0.0000 0.8660 -0.5000
vn 0.2536 0.4837 -0.8377
vn 0.2534 0.0006 -0.9674
vn 0.2536 0.8377 -0.4837
vn 0.4909 0.4353 -0.7547
vn 0.4909 -0.4353 -0.7547
vn 0.4910 0.0006 -0.8711
vn 0.2534 0.9674 0.0006
vn 0.4909 0.7547 -0.4352
vn 0.6629 0.3747 -0.6482
vn 0.6629 -0.3747 -0.6482
vn 0.4909 0.7547 0.4353
vn 0.4910 0.8711 0.0005
vn 0.6628 0.6483 -0.3746
vn 0.6628 0.7488 0.0005
vn 0.4909 0.4352 0.7547
vn 0.6628 0.6483 0.3746
vn 0.6629 0.3747 0.6482
vn 0.2534 0.0006 0.9674
vn 0.6070 0.7947 0.0004
vn 0.4910 0.0005 0.8711
vn 0.2536 -0.4837 0.8377
vn 0.4909 -0.4356 0.7545
vn 0.6627 0.0003 0.7489
vn 0.6629 -0.3747 0.6482
vn -0.0000 -0.8660 0.5000
vn 0.2536 -0.8377 0.4837
vn 0.2534 -0.9673 0.0005
vn 0.4909 -0.7547 0.4353
vn 0.6629 -0.6482 0.3747
vn 0.4909 -0.7547 -0.4353
vn 0.4910 -0.8711 0.0005
vn 0.6629 -0.6482 -0.3747
vn 0.6627 -0.7488 0.0004
vn 0.6071 -0.7946 0.0005
vn 0.6068 -0.3974 -0.6883
vn 0.6068 -0.3974 0.6883
vn 0.6072 -0.6882 0.3971
vn 0.6071 0.0005 0.7946
vn 0.3660 -0.4657 0.8057
vn 0.3658 -0.8060 0.4653
vn 0.6068 0.3974 0.6883
vn 0.3659 0.0003 0.9307
vn 0.6071 0.6883 0.3972
vn 0.3659 0.4656 0.8058
vn 0.3660 0.8057 0.4657
vn 0.2049 0.4894 0.8477
vn 0.2049 -0.4894 0.8476
vn 0.2048 0.0003 0.9788
vn 0.2049 0.8477 0.4894
vn 0.3658 0.9307 -0.0000
vn 0.0987 0.4975 0.8618
vn 0.0987 -0.4976 0.8618
vn 0.2049 -0.8477 0.4894
vn 0.3658 -0.9307 -0.0000
vn 0.0990 0.0004 0.9951
vn 0.0376 0.4997 0.8654
vn 0.0376 -0.4997 0.8654
vn 0.0987 -0.8618 0.4976
vn 0.2048 -0.9788 0.0005
vn 0.0993 -0.9951 0.0006
vn 0.0376 0.0003 0.9993
vn 0.0376 -0.8655 0.4996
vn 0.1226 -0.8596 0.4960
vn 0.0376 -0.9993 0.0005
vn 0.1225 -0.4963 0.8595
vn 0.1226 0.0005 0.9925
vn 0.7412 -0.3358 0.5812
vn 0.1225 0.4963 0.8595
vn 0.7414 0.0005 0.6710
vn 0.7414 -0.5812 0.3354
vn 0.7412 0.3357 0.5813
vn 0.7413 0.5813 0.3355
vn 0.7414 0.6710 0.0005
vn 0.1225 0.8595 0.4963
vn 0.1226 0.9925 0.0005
vn 0.0376 0.8654 0.4996
vn 0.0376 0.9993 0.0005
vn 0.0987 0.8618 0.4975
vn 0.0992 0.9951 0.0005
vn 0.2048 0.9788 0.0003
vn 0.0376 0.8653 -0.4999
vn 0.0987 0.8618 -0.4975
vn 0.2049 0.8477 -0.4894
vn 0.3659 0.8058 -0.4656
vn 0.1225 0.8595 -0.4963
vn 0.0376 0.4997 -0.8654
vn 0.7413 0.5813 -0.3355
vn 0.1227 0.4959 -0.8597
vn 0.7412 0.3357 -0.5813
vn 0.7414 0.0005 -0.6710
vn 0.7414 -0.5812 -0.3354
vn 0.1226 0.0005 -0.9925
vn 0.7412 -0.3359 -0.5812
vn 0.0376 0.0003 -0.9993
vn 0.1225 -0.4963 -0.8595
vn 0.1226 -0.8596 -0.4960
vn 0.7414 -0.6710 0.0005
vn 0.1227 -0.9924 0.0006
vn 0.0376 -0.4997 -0.8654
vn 0.0376 -0.8655 -0.4996
vn 0.0991 -0.8618 -0.4975
vn 0.0990 0.0004 -0.9951
vn 0.0987 -0.4976 -0.8618
vn 0.2049 -0.8477 -0.4894
vn 0.0991 0.4975 -0.8618
vn 0.2048 0.0003 -0.9788
vn 0.2047 0.4891 -0.8478
vn 0.2049 -0.4894 -0.8476
vn 0.3659 0.0003 -0.9307
vn 0.3660 0.4657 -0.8057
vn 0.3658 -0.8060 -0.4653
vn 0.3660 -0.4657 -0.8057
vn 0.6071 -0.6883 -0.3972
vn 0.6070 0.0004 -0.7947
vn 0.6627 0.0004 -0.7488
vn 0.6068 0.3974 -0.6883
vn 0.6068 0.6883 -0.3974
vt 0.000000 0.000000
s 1
f 1/1/1 2/1/2 3/1/3
f 3/1/3 2/1/2 4/1/4
f 1/1/1 5/1/5 2/1/2
f 3/1/3 6/1/6 1/1/1
f 5/1/5 7/1/7 2/1/2
f 4/1/4 8/1/8 3/1/3
f 9/1/9 5/1/5 1/1/1
f 2/1/2 10/1/10 4/1/4
f 10/1/10 2/1/2 7/1/7
f 11/1/11 4/1/4 10/1/10
f 7/1/7 5/1/5 12/1/12
f 4/1/4 11/1/11 13/1/13
f 8/1/8 4/1/4 13/1/13
f 10/1/10 14/1/14 11/1/11
f 7/1/7 15/1/15 10/1/10
f 15/1/15 14/1/14 10/1/10
f 15/1/15 7/1/7 16/1/16
f 16/1/16 7/1/7 12/1/12
f 17/1/17 12/1/12 5/1/5
f 9/1/9 17/1/17 5/1/5
f 16/1/16 12/1/12 18/1/18
f 18/1/18 12/1/12 19/1/19
f 12/1/12 17/1/17 19/1/19
f 20/1/20 18/1/18 19/1/19
f 17/1/17 20/1/20 19/1/19
f 21/1/21 17/1/17 9/1/9
f 18/1/18 20/1/20 22/1/22
f 23/1/23 16/1/16 18/1/18
f 22/1/22 23/1/23 18/1/18
f 24/1/24 15/1/15 16/1/16
f 24/1/24 16/1/16 23/1/23
f 25/1/25 15/1/15 24/1/24
f 15/1/15 25/1/25 14/1/14
f 14/1/14 25/1/25 26/1/26
f 24/1/24 27/1/27 25/1/25
f 25/1/25 28/1/28 26/1/26
f 28/1/28 25/1/25 27/1/27
f 27/1/27 24/1/24 29/1/29
f 23/1/23 29/1/29 24/1/24
f 30/1/30 14/1/14 26/1/26
f 28/1/28 30/1/30 26/1/26
f 14/1/14 30/1/30 31/1/31
f 14/1/14 31/1/31 11/1/11
f 30/1/30 28/1/28 32/1/32
f 33/1/33 11/1/11 31/1/31
f 33/1/33 13/1/13 11/1/11
f 34/1/34 31/1/31 30/1/30
f 32/1/32 34/1/34 30/1/30
f 31/1/31 35/1/35 33/1/33
f 31/1/31 34/1/34 35/1/35
f 13/1/13 33/1/33 36/1/36
f 35/1/35 37/1/37 33/1/33
f 33/1/33 37/1/37 36/1/36
f 34/1/34 37/1/37 35/1/35
f 34/1/34 32/1/32 38/1/38
f 38/1/38 37/1/37 34/1/34
f 39/1/39 13/1/13 36/1/36
f 36/1/36 37/1/37 39/1/39
f 13/1/13 39/1/39 8/1/8
f 32/1/32 40/1/40 38/1/38
f 40/1/40 37/1/37 38/1/38
f 40/1/40 32/1/32 41/1/41
f 28/1/28 41/1/41 32/1/32
f 8/1/8 39/1/39 42/1/42
f 39/1/39 37/1/37 42/1/42
f 41/1/41 28/1/28 43/1/43
f 27/1/27 43/1/43 28/1/28
f 40/1/40 41/1/41 44/1/44
f 43/1/43 27/1/27 45/1/45
f 46/1/46 37/1/37 40/1/40
f 44/1/44 46/1/46 40/1/40
f 29/1/29 45/1/45 27/1/27
f 47/1/47 37/1/37 46/1/46
f 44/1/44 47/1/47 46/1/46
f 42/1/42 37/1/37 48/1/48
f 49/1/49 44/1/44 41/1/41
f 43/1/43 49/1/49 41/1/41
f 47/1/47 44/1/44 50/1/50
f 49/1/49 50/1/50 44/1/44
f 51/1/51 37/1/37 47/1/47
f 48/1/48 37/1/37 51/1/51
f 50/1/50 51/1/51 47/1/47
f 52/1/52 42/1/42 48/1/48
f 51/1/51 52/1/52 48/1/48
f 42/1/42 52/1/52 53/1/53
f 53/1/53 8/1/8 42/1/42
f 52/1/52 51/1/51 54/1/54
f 51/1/51 50/1/50 54/1/54
f 55/1/55 53/1/53 52/1/52
f 54/1/54 55/1/55 52/1/52
f 56/1/56 8/1/8 53/1/53
f 53/1/53 55/1/55 56/1/56
f 8/1/8 56/1/56 3/1/3
f 6/1/6 3/1/3 56/1/56
f 50/1/50 57/1/57 54/1/54
f 55/1/55 54/1/54 57/1/57
f 58/1/58 56/1/56 55/1/55
f 56/1/56 58/1/58 6/1/6
f 57/1/57 58/1/58 55/1/55
f 57/1/57 50/1/50 59/1/59
f 50/1/50 49/1/49 59/1/59
f 60/1/60 58/1/58 57/1/57
f 59/1/59 60/1/60 57/1/57
f 61/1/61 6/1/6 58/1/58
f 60/1/60 61/1/61 58/1/58
f 6/1/6 61/1/61 62/1/62
f 62/1/62 1/1/1 6/1/6
f 1/1/1 62/1/62 9/1/9
f 63/1/63 59/1/59 49/1/49
f 43/1/43 63/1/63 49/1/49
f 45/1/45 63/1/63 43/1/43
f 59/1/59 63/1/63 64/1/64
f 60/1/60 59/1/59 64/1/64
f 45/1/45 65/1/65 63/1/63
f 65/1/65 64/1/64 63/1/63
f 66/1/66 60/1/60 64/1/64
f 64/1/64 65/1/65 66/1/66
f 67/1/67 61/1/61 60/1/60
f 60/1/60 66/1/66 67/1/67
f 67/1/67 68/1/68 61/1/61
f 68/1/68 62/1/62 61/1/61
f 66/1/66 69/1/69 67/1/67
f 69/1/69 68/1/68 67/1/67
f 66/1/66 70/1/70 69/1/69
f 71/1/71 66/1/66 65/1/65
f 66/1/66 71/1/71 70/1/70
f 72/1/72 65/1/65 45/1/45
f 72/1/72 71/1/71 65/1/65
f 45/1/45 29/1/29 72/1/72
f 73/1/73 69/1/69 70/1/70
f 71/1/71 73/1/73 70/1/70
f 69/1/69 73/1/73 74/1/74
f 74/1/74 68/1/68 69/1/69
f 75/1/75 71/1/71 72/1/72
f 76/1/76 72/1/72 29/1/29
f 72/1/72 76/1/76 75/1/75
f 29/1/29 23/1/23 76/1/76
f 77/1/77 71/1/71 75/1/75
f 75/1/75 76/1/76 77/1/77
f 71/1/71 77/1/77 78/1/78
f 78/1/78 73/1/73 71/1/71
f 77/1/77 76/1/76 79/1/79
f 76/1/76 23/1/23 79/1/79
f 80/1/80 78/1/78 77/1/77
f 77/1/77 79/1/79 80/1/80
f 78/1/78 81/1/81 73/1/73
f 81/1/81 74/1/74 73/1/73
f 78/1/78 80/1/80 82/1/82
f 78/1/78 82/1/82 81/1/81
f 79/1/79 23/1/23 83/1/83
f 23/1/23 22/1/22 83/1/83
f 80/1/80 79/1/79 84/1/84
f 79/1/79 83/1/83 84/1/84
f 85/1/85 82/1/82 80/1/80
f 85/1/85 80/1/80 84/1/84
f 82/1/82 86/1/86 81/1/81
f 87/1/87 83/1/83 22/1/22
f 84/1/84 83/1/83 88/1/88
f 83/1/83 87/1/87 88/1/88
f 84/1/84 88/1/88 89/1/89
f 89/1/89 85/1/85 84/1/84
f 89/1/89 88/1/88 90/1/90
f 22/1/22 91/1/91 87/1/87
f 91/1/91 22/1/22 20/1/20
f 92/1/92 88/1/88 87/1/87
f 88/1/88 92/1/92 90/1/90
f 93/1/93 87/1/87 91/1/91
f 87/1/87 93/1/93 92/1/92
f 94/1/94 91/1/91 20/1/20
f 94/1/94 20/1/20 17/1/17
f 92/1/92 95/1/95 90/1/90
f 89/1/89 90/1/90 95/1/95
f 94/1/94 96/1/96 91/1/91
f 96/1/96 93/1/93 91/1/91
f 17/1/17 97/1/97 94/1/94
f 97/1/97 17/1/17 21/1/21
f 94/1/94 98/1/98 96/1/96
f 98/1/98 94/1/94 97/1/97
f 96/1/96 99/1/99 93/1/93
f 100/1/100 96/1/96 98/1/98
f 96/1/96 100/1/100 99/1/99
f 101/1/101 97/1/97 21/1/21
f 9/1/9 101/1/101 21/1/21
f 101/1/101 9/1/9 62/1/62
f 62/1/62 68/1/68 101/1/101
f 101/1/101 102/1/102 97/1/97
f 68/1/68 102/1/102 101/1/101
f 102/1/102 98/1/98 97/1/97
f 103/1/103 102/1/102 68/1/68
f 102/1/102 104/1/104 98/1/98
f 98/1/98 104/1/104 100/1/100
f 103/1/103 104/1/104 102/1/102
f 68/1/68 74/1/74 103/1/103
f 100/1/100 104/1/104 105/1/105
f 106/1/106 103/1/103 74/1/74
f 74/1/74 81/1/81 106/1/106
f 103/1/103 107/1/107 104/1/104
f 103/1/103 106/1/106 107/1/107
f 107/1/107 105/1/105 104/1/104
f 86/1/86 106/1/106 81/1/81
f 108/1/108 107/1/107 106/1/106
f 106/1/106 86/1/86 108/1/108
f 107/1/107 108/1/108 109/1/109
f 107/1/107 109/1/109 105/1/105
f 108/1/108 110/1/110 109/1/109
f 110/1/110 105/1/105 109/1/109
f 108/1/108 86/1/86 111/1/111
f 105/1/105 112/1/112 100/1/100
f 99/1/99 100/1/100 112/1/112
f 112/1/112 105/1/105 113/1/113
f 105/1/105 110/1/110 113/1/113
f 112/1/112 114/1/114 99/1/99
f 113/1/113 115/1/115 112/1/112
f 115/1/115 114/1/114 112/1/112
f 115/1/115 113/1/113 116/1/116
f 110/1/110 116/1/116 113/1/113
f 117/1/117 99/1/99 114/1/114
f 99/1/99 117/1/117 93/1/93
f 114/1/114 115/1/115 118/1/118
f 119/1/119 93/1/93 117/1/117
f 93/1/93 119/1/119 92/1/92
f 114/1/114 120/1/120 117/1/117
f 117/1/117 120/1/120 119/1/119
f 120/1/120 114/1/114 118/1/118
f 95/1/95 92/1/92 119/1/119
f 121/1/121 119/1/119 120/1/120
f 119/1/119 121/1/121 95/1/95
f 118/1/118 122/1/122 120/1/120
f 120/1/120 122/1/122 121/1/121
f 123/1/123 118/1/118 115/1/115
f 116/1/116 123/1/123 115/1/115
f 122/1/122 118/1/118 124/1/124
f 118/1/118 123/1/123 124/1/124
f 125/1/125 121/1/121 122/1/122
f 126/1/126 95/1/95 121/1/121
f 121/1/121 125/1/125 126/1/126
f 124/1/124 127/1/127 122/1/122
f 122/1/122 127/1/127 125/1/125
f 128/1/128 124/1/124 123/1/123
f 123/1/123 116/1/116 129/1/129
f 129/1/129 128/1/128 123/1/123
f 130/1/130 129/1/129 116/1/116
f 116/1/116 110/1/110 130/1/130
f 127/1/127 124/1/124 131/1/131
f 124/1/124 128/1/128 131/1/131
f 131/1/131 132/1/132 127/1/127
f 133/1/133 131/1/131 128/1/128
f 128/1/128 129/1/129 134/1/134
f 134/1/134 133/1/133 128/1/128
f 135/1/135 134/1/134 129/1/129
f 129/1/129 130/1/130 135/1/135
f 134/1/134 135/1/135 136/1/136
f 132/1/132 131/1/131 137/1/137
f 131/1/131 133/1/133 137/1/137
f 133/1/133 134/1/134 138/1/138
f 136/1/136 138/1/138 134/1/134
f 139/1/139 133/1/133 138/1/138
f 138/1/138 136/1/136 140/1/140
f 140/1/140 139/1/139 138/1/138
f 141/1/141 137/1/137 133/1/133
f 141/1/141 133/1/133 139/1/139
f 137/1/137 141/1/141 142/1/142
f 139/1/139 143/1/143 141/1/141
f 143/1/143 142/1/142 141/1/141
f 144/1/144 137/1/137 142/1/142
f 137/1/137 144/1/144 132/1/132
f 142/1/142 143/1/143 145/1/145
f 143/1/143 139/1/139 146/1/146
f 146/1/146 145/1/145 143/1/143
f 147/1/147 142/1/142 145/1/145
f 142/1/142 147/1/147 144/1/144
f 145/1/145 148/1/148 147/1/147
f 145/1/145 149/1/149 148/1/148
f 149/1/149 145/1/145 146/1/146
f 148/1/148 150/1/150 147/1/147
f 144/1/144 147/1/147 150/1/150
f 150/1/150 148/1/148 151/1/151
f 149/1/149 151/1/151 148/1/148
f 150/1/150 152/1/152 144/1/144
f 132/1/132 144/1/144 152/1/152
f 151/1/151 153/1/153 150/1/150
f 152/1/152 150/1/150 153/1/153
f 152/1/152 154/1/154 132/1/132
f 127/1/127 132/1/132 154/1/154
f 154/1/154 125/1/125 127/1/127
f 154/1/154 152/1/152 155/1/155
f 153/1/153 155/1/155 152/1/152
f 125/1/125 154/1/154 156/1/156
f 155/1/155 156/1/156 154/1/154
f 156/1/156 126/1/126 125/1/125
f 157/1/157 155/1/155 153/1/153
f 158/1/158 156/1/156 155/1/155
f 155/1/155 157/1/157 158/1/158
f 156/1/156 158/1/158 159/1/159
f 159/1/159 126/1/126 156/1/156
f 126/1/126 159/1/159 160/1/160
f 160/1/160 95/1/95 126/1/126
f 153/1/153 161/1/161 157/1/157
f 161/1/161 153/1/153 151/1/151
f 162/1/162 158/1/158 157/1/157
f 151/1/151 163/1/163 161/1/161
f 163/1/163 151/1/151 149/1/149
f 164/1/164 157/1/157 161/1/161
f 157/1/157 164/1/164 162/1/162
f 165/1/165 161/1/161 163/1/163
f 161/1/161 165/1/165 164/1/164
f 149/1/149 166/1/166 163/1/163
f 163/1/163 166/1/166 165/1/165
f 166/1/166 149/1/149 167/1/167
f 149/1/149 146/1/146 167/1/167
f 168/1/168 165/1/165 166/1/166
f 165/1/165 168/1/168 164/1/164
f 169/1/169 168/1/168 166/1/166
f 166/1/166 167/1/167 169/1/169
f 170/1/170 164/1/164 168/1/168
f 164/1/164 170/1/170 162/1/162
f 168/1/168 169/1/169 171/1/171
f 171/1/171 170/1/170 168/1/168
f 172/1/172 169/1/169 167/1/167
f 169/1/169 172/1/172 171/1/171
f 167/1/167 146/1/146 173/1/173
f 146/1/146 174/1/174 173/1/173
f 174/1/174 167/1/167 173/1/173
f 174/1/174 146/1/146 139/1/139
f 167/1/167 174/1/174 172/1/172
f 139/1/139 140/1/140 174/1/174
f 140/1/140 172/1/172 174/1/174
f 170/1/170 171/1/171 175/1/175
f 172/1/172 175/1/175 171/1/171
f 172/1/172 140/1/140 176/1/176
f 175/1/175 172/1/172 176/1/176
f 136/1/136 176/1/176 140/1/140
f 176/1/176 136/1/136 177/1/177
f 176/1/176 177/1/177 175/1/175
f 135/1/135 177/1/177 136/1/136
f 175/1/175 178/1/178 170/1/170
f 178/1/178 162/1/162 170/1/170
f 175/1/175 177/1/177 179/1/179
f 178/1/178 175/1/175 179/1/179
f 177/1/177 135/1/135 180/1/180
f 177/1/177 180/1/180 179/1/179
f 130/1/130 180/1/180 135/1/135
f 162/1/162 178/1/178 181/1/181
f 158/1/158 162/1/162 181/1/181
f 181/1/181 159/1/159 158/1/158
f 182/1/182 181/1/181 178/1/178
f 179/1/179 182/1/182 178/1/178
f 159/1/159 181/1/181 183/1/183
f 181/1/181 182/1/182 183/1/183
f 183/1/183 160/1/160 159/1/159
f 182/1/182 179/1/179 184/1/184
f 179/1/179 180/1/180 184/1/184
f 185/1/185 183/1/183 182/1/182
f 184/1/184 185/1/185 182/1/182
f 160/1/160 183/1/183 186/1/186
f 183/1/183 185/1/185 186/1/186
f 180/1/180 187/1/187 184/1/184
f 180/1/180 130/1/130 187/1/187
f 110/1/110 187/1/187 130/1/130
f 184/1/184 187/1/187 188/1/188
f 185/1/185 184/1/184 188/1/188
f 187/1/187 110/1/110 189/1/189
f 189/1/189 188/1/188 187/1/187
f 110/1/110 108/1/108 189/1/189
f 111/1/111 189/1/189 108/1/108
f 188/1/188 189/1/189 111/1/111
f 188/1/188 190/1/190 185/1/185
f 190/1/190 188/1/188 111/1/111
f 190/1/190 186/1/186 185/1/185
f 111/1/111 191/1/191 190/1/190
f 191/1/191 111/1/111 86/1/86
f 82/1/82 191/1/191 86/1/86
f 82/1/82 85/1/85 191/1/191
f 85/1/85 190/1/190 191/1/191
f 186/1/186 190/1/190 192/1/192
f 190/1/190 85/1/85 192/1/192
f 192/1/192 160/1/160 186/1/186
f 85/1/85 193/1/193 192/1/192
f 160/1/160 192/1/192 193/1/193
f 193/1/193 85/1/85 89/1/89
f 95/1/95 160/1/160 193/1/193
f 95/1/95 193/1/193 89/1/89