# Blender 5.1.1
# www.blender.org
o 17773029240
v -0.173446 -0.033996 -0.056303
v -0.173446 -0.033996 0.056303
v -0.173446 0.060196 -0.039364
v -0.173446 0.046027 -0.056303
v -0.173446 0.060196 0.039364
v -0.173446 0.046027 0.056303
v 0.089562 -0.033996 -0.056303
v 0.089562 0.060196 -0.039364
v 0.089562 -0.033996 0.056303
v 0.089562 0.046027 -0.056303
v 0.089562 0.060196 0.039364
v 0.089562 0.046027 0.056303
v 0.089562 0.046027 -0.056303
v -0.173446 -0.033996 -0.056303
v -0.173446 0.046027 -0.056303
v 0.089562 -0.033996 -0.056303
v -0.173446 0.060196 -0.039364
v 0.089562 0.060196 -0.039364
v 0.089562 0.060196 0.039364
v -0.173446 0.060196 0.039364
v -0.173446 0.046027 0.056303
v 0.089562 0.046027 0.056303
v 0.089562 -0.033996 0.056303
v -0.173446 -0.033996 0.056303
v 0.089562 0.060196 -0.039364
v -0.173446 0.060196 -0.039364
v -0.173446 0.060196 0.039364
v 0.089562 0.060196 0.039364
v -0.509882 -0.062427 -0.064948
v -0.509882 -0.062427 0.064949
v -0.509677 0.009922 -0.064948
v -0.509677 0.009922 0.064949
v -0.469634 -0.127551 -0.064948
v -0.509882 -0.062427 0.064949
v -0.509882 -0.062427 -0.064948
v -0.469634 -0.127551 0.064949
v 0.116662 0.060872 -0.064949
v 0.116662 0.060872 0.064948
v 0.116662 -0.027232 -0.064949
v 0.116662 -0.027232 0.064948
v -0.509677 0.009922 -0.064948
v -0.447074 0.072345 0.064949
v -0.447074 0.072345 -0.064948
v -0.509677 0.009922 0.064949
v 0.116662 0.060872 -0.064949
v 0.105189 0.072345 0.064948
v 0.116662 0.060872 0.064948
v 0.105189 0.072345 -0.064949
v 0.116662 -0.027232 -0.064949
v 0.081466 -0.062427 0.064948
v 0.081466 -0.062427 -0.064949
v 0.116662 -0.027232 0.064948
v -0.447074 0.072345 0.064949
v -0.178143 0.072345 0.064949
v -0.447074 0.072345 -0.064948
v -0.178143 0.072345 -0.064948
v 0.084888 0.072345 -0.064949
v 0.084888 0.072345 0.064948
v 0.105189 0.072345 -0.064949
v 0.105189 0.072345 0.064948
v -0.237433 -0.047299 -0.064949
v -0.509882 -0.062427 -0.064948
v -0.466538 -0.047299 -0.064948
v -0.509677 0.009922 -0.064948
v -0.442117 -0.008225 -0.064948
v -0.447074 0.072345 -0.064948
v -0.213012 -0.008225 -0.064949
v -0.178143 0.072345 -0.064948
v -0.167335 0.020232 -0.064948
v -0.167335 0.056905 -0.064948
v -0.156527 0.004792 -0.064948
v -0.167121 -0.062427 -0.064949
v 0.063273 0.004792 -0.064949
v -0.207370 -0.127551 -0.064949
v -0.469634 -0.127551 -0.064948
v 0.081466 -0.062427 -0.064949
v 0.116662 -0.027232 -0.064949
v 0.074080 0.020232 -0.064949
v 0.116662 0.060872 -0.064949
v 0.074080 0.056905 -0.064949
v 0.105189 0.072345 -0.064949
v 0.084888 0.072345 -0.064949
v -0.178143 0.072345 0.064949
v -0.213012 -0.008225 0.064948
v -0.167335 0.020232 0.064948
v -0.167335 0.056905 0.064948
v -0.156527 0.004792 0.064948
v -0.447074 0.072345 0.064949
v -0.442117 -0.008225 0.064949
v -0.509677 0.009922 0.064949
v -0.466538 -0.047299 0.064949
v -0.509882 -0.062427 0.064949
v -0.237433 -0.047299 0.064948
v -0.167121 -0.062427 0.064948
v 0.063273 0.004792 0.064948
v -0.207370 -0.127551 0.064948
v -0.469634 -0.127551 0.064949
v 0.081466 -0.062427 0.064948
v 0.116662 -0.027232 0.064948
v 0.074080 0.020232 0.064948
v 0.116662 0.060872 0.064948
v 0.074080 0.056905 0.064948
v 0.105189 0.072345 0.064948
v 0.084888 0.072345 0.064948
v 0.081466 -0.062427 0.064948
v -0.167121 -0.062427 0.064948
v 0.081466 -0.062427 -0.064949
v -0.167121 -0.062427 -0.064949
v -0.237433 -0.047299 -0.064949
v -0.213012 -0.008225 0.064948
v -0.213012 -0.008225 -0.064949
v -0.237433 -0.047299 0.064948
v -0.167335 0.056905 0.064948
v -0.167335 0.056905 -0.064948
v -0.178143 0.072345 -0.064948
v -0.178143 0.072345 0.064949
v -0.207370 -0.127551 0.064948
v -0.207370 -0.127551 -0.064949
v -0.167121 -0.062427 -0.064949
v -0.167121 -0.062427 0.064948
v -0.156527 0.004792 0.064948
v -0.156527 0.004792 -0.064948
v -0.167335 0.020232 -0.064948
v -0.167335 0.020232 0.064948
v -0.442117 -0.008225 -0.064948
v -0.213012 -0.008225 -0.064949
v -0.213012 -0.008225 0.064948
v -0.442117 -0.008225 0.064949
v -0.156527 0.004792 -0.064948
v 0.063273 0.004792 0.064948
v 0.063273 0.004792 -0.064949
v -0.156527 0.004792 0.064948
v -0.167335 0.056905 -0.064948
v -0.167335 0.056905 0.064948
v -0.167335 0.020232 -0.064948
v -0.167335 0.020232 0.064948
v -0.466538 -0.047299 -0.064948
v -0.237433 -0.047299 0.064948
v -0.237433 -0.047299 -0.064949
v -0.466538 -0.047299 0.064949
v 0.084888 0.072345 0.064948
v 0.084888 0.072345 -0.064949
v 0.074080 0.056905 -0.064949
v 0.074080 0.056905 0.064948
v 0.074080 0.020232 0.064948
v 0.074080 0.020232 -0.064949
v 0.063273 0.004792 -0.064949
v 0.063273 0.004792 0.064948
v -0.442117 -0.008225 -0.064948
v -0.466538 -0.047299 0.064949
v -0.466538 -0.047299 -0.064948
v -0.442117 -0.008225 0.064949
v 0.074080 0.056905 0.064948
v 0.074080 0.056905 -0.064949
v 0.074080 0.020232 -0.064949
v 0.074080 0.020232 0.064948
v -0.216375 -0.008066 0.056983
v -0.240796 -0.047140 -0.056983
v -0.216375 -0.008066 -0.056983
v -0.240796 -0.047140 0.056983
v -0.469901 -0.047140 -0.056983
v -0.469901 -0.047140 0.056983
v -0.445481 -0.008066 -0.056983
v -0.445481 -0.008066 0.056983
v -0.216375 -0.008066 0.056983
v -0.445481 -0.008066 0.056983
v -0.240796 -0.047140 0.056983
v -0.469901 -0.047140 0.056983
v -0.240796 -0.047140 -0.056983
v -0.445481 -0.008066 -0.056983
v -0.216375 -0.008066 -0.056983
v -0.469901 -0.047140 -0.056983
v -0.469901 -0.047140 -0.056983
v -0.240796 -0.047140 -0.056983
v -0.240796 -0.047140 0.056983
v -0.469901 -0.047140 0.056983
v -0.216375 -0.008066 -0.056983
v -0.445481 -0.008066 -0.056983
v -0.445481 -0.008066 0.056983
v -0.216375 -0.008066 0.056983
v -0.354352 0.097129 -0.048130
v -0.413329 0.065128 -0.048130
v -0.413329 0.097129 -0.048130
v -0.354352 0.065128 -0.048130
v -0.354352 0.097129 0.048130
v -0.413329 0.097129 0.048130
v -0.354352 0.065128 0.048130
v -0.413329 0.065128 0.048130
v -0.354352 0.097129 -0.015052
v -0.354352 0.097129 -0.048130
v -0.354352 0.107599 -0.029373
v -0.354352 0.107599 -0.015052
v -0.354352 0.065128 -0.048130
v -0.354352 0.097129 0.015052
v -0.354352 0.065128 0.048130
v -0.354352 0.097129 0.048130
v -0.354352 0.107599 0.029373
v -0.354352 0.107599 0.015052
v -0.413329 0.065128 -0.048130
v -0.413329 0.097129 -0.015052
v -0.413329 0.097129 -0.048130
v -0.413329 0.107599 -0.029373
v -0.413329 0.107599 -0.015052
v -0.413329 0.065128 0.048130
v -0.413329 0.097129 0.015052
v -0.413329 0.097129 0.048130
v -0.413329 0.107599 0.029373
v -0.413329 0.107599 0.015052
v -0.354352 0.107599 0.029373
v -0.413329 0.107599 0.029373
v -0.413329 0.097129 0.048130
v -0.354352 0.097129 0.048130
v -0.354352 0.097129 -0.048130
v -0.413329 0.097129 -0.048130
v -0.413329 0.107599 -0.029373
v -0.354352 0.107599 -0.029373
v -0.354352 0.107599 0.015052
v -0.413329 0.107599 0.015052
v -0.413329 0.107599 0.029373
v -0.354352 0.107599 0.029373
v -0.354352 0.107599 -0.029373
v -0.413329 0.107599 -0.029373
v -0.413329 0.107599 -0.015052
v -0.354352 0.107599 -0.015052
v -0.354352 0.097129 -0.015052
v -0.413329 0.097129 -0.015052
v -0.413329 0.097129 0.015052
v -0.354352 0.097129 0.015052
v -0.354352 0.107599 -0.015052
v -0.413329 0.097129 -0.015052
v -0.354352 0.097129 -0.015052
v -0.413329 0.107599 -0.015052
v -0.413329 0.107599 0.015052
v -0.354352 0.107599 0.015052
v -0.354352 0.097129 0.015052
v -0.413329 0.097129 0.015052
vn -1.0000 -0.0000 0.0005
vn 1.0000 -0.0000 0.0005
vn 0.0005 0.4435 -0.8963
vn 0.0005 -0.0000 -1.0000
vn 0.0005 0.7671 -0.6415
vn -0.0000 0.7670 -0.6416
vn 0.0005 0.7671 0.6415
vn -0.0000 0.7670 0.6416
vn 0.0005 0.4435 0.8963
vn 0.0005 -0.0000 1.0000
vn 0.0005 1.0000 0.0005
vn -1.0000 0.0025 0.0004
vn -1.0000 0.0024 0.0005
vn -0.8504 -0.5261 0.0005
vn -0.8505 -0.5260 0.0004
vn -0.8505 -0.5261 0.0004
vn 1.0000 0.0005 0.0005
vn -0.7061 0.7081 0.0005
vn 0.7071 0.7071 0.0005
vn 0.7071 0.7071 0.0003
vn 0.7071 -0.7071 0.0005
vn 0.7071 -0.7071 0.0003
vn 0.0005 0.0005 -1.0000
vn 0.0004 0.0004 -1.0000
vn 0.0003 0.0003 -1.0000
vn 0.0005 0.0005 1.0000
vn 0.0003 0.0003 1.0000
vn 0.0004 0.0004 1.0000
vn 0.0005 -1.0000 0.0005
vn -0.8479 0.5302 0.0004
vn -0.8480 0.5300 -0.0000
vn 0.8194 0.5732 0.0005
vn 0.8195 0.5731 0.0005
vn 0.8194 0.5732 0.0004
vn 0.8505 -0.5260 0.0004
vn -0.8195 0.5731 0.0005
vn -0.8195 0.5731 0.0006
vn -0.8194 0.5732 0.0005
vn -0.8194 0.5732 0.0004
vn 0.8479 -0.5302 0.0004
vn -1.0000 0.0005 0.0005
vn 0.8480 -0.5300 0.0005
vn 0.8480 -0.5300 0.0003
vn -0.8480 0.5300 0.0005
vn 0.0001 0.0005 1.0000
vn 0.0001 0.0005 -1.0000
vn 0.0001 -1.0000 0.0005
vn 0.0001 -1.0000 0.0006
vn 0.0001 1.0000 0.0005
vn 1.0000 -0.0000 0.0003
vn -1.0000 -0.0000 0.0003
vn 0.0005 0.9701 0.2428
vn 0.0005 0.8734 0.4870
vn 0.0004 0.8734 0.4871
vn 0.0005 0.8734 -0.4870
vn 0.0004 0.8734 -0.4871
vn 0.0005 0.9701 -0.2428
vn 0.0005 0.9701 0.2427
vn 0.0005 0.9701 -0.2427
vn 0.0006 -0.0000 1.0000
vn 0.0006 -0.0000 -1.0000
vt 0.000000 0.000000
vt 0.625000 0.500000
vt 0.375000 0.250000
vt 0.625000 0.250000
vt 0.375000 0.500000
vt 0.625000 0.750000
vt 0.625000 1.000000
vt 0.375000 0.750000
vt 0.375000 1.000000
vt 0.625000 0.583333
vt 0.625000 0.666667
vt 0.625000 0.166667
vt 0.375000 0.000000
vt 0.625000 0.083333
vt 0.625000 0.000000
vt 0.875000 0.666667
vt 0.875000 0.750000
vt 0.875000 0.500000
vt 0.875000 0.583333
s 1
f 1/1/1 2/1/1 3/1/1
f 1/1/1 3/1/1 4/1/1
f 2/1/1 5/1/1 3/1/1
f 5/1/1 2/1/1 6/1/1
f 7/1/2 8/1/2 9/1/2
f 8/1/2 7/1/2 10/1/2
f 9/1/2 8/1/2 11/1/2
f 9/1/2 11/1/2 12/1/2
f 13/1/3 14/1/4 15/1/3
f 14/1/4 13/1/3 16/1/4
f 13/1/3 15/1/3 17/1/5
f 13/1/3 17/1/5 18/1/6
f 19/1/7 20/1/8 21/1/9
f 19/1/7 21/1/9 22/1/9
f 22/1/9 21/1/9 23/1/10
f 24/1/10 23/1/10 21/1/9
f 25/1/11 26/1/11 27/1/11
f 25/1/11 27/1/11 28/1/11
f 29/1/12 30/1/12 31/1/13
f 31/1/13 30/1/12 32/1/12
f 33/1/14 34/1/15 35/1/16
f 34/1/15 33/1/14 36/1/14
f 37/1/17 38/1/17 39/1/17
f 39/1/17 38/1/17 40/1/17
f 41/1/18 42/1/18 43/1/18
f 42/1/18 41/1/18 44/1/18
f 45/1/19 46/1/20 47/1/20
f 46/1/20 45/1/19 48/1/20
f 49/1/21 50/1/21 51/1/21
f 50/1/21 49/1/21 52/1/22
f 53/1/11 54/1/11 55/1/11
f 56/1/11 55/1/11 54/1/11
f 57/1/11 58/1/11 59/1/11
f 59/1/11 58/1/11 60/1/11
f 61/1/23 62/1/24 63/1/23
f 64/1/23 63/1/23 62/1/24
f 63/1/23 64/1/23 65/1/23
f 65/1/23 64/1/23 66/1/23
f 66/1/23 67/1/25 65/1/23
f 68/1/23 67/1/25 66/1/23
f 67/1/25 68/1/23 69/1/23
f 69/1/23 68/1/23 70/1/23
f 71/1/23 67/1/25 69/1/23
f 67/1/25 72/1/25 61/1/23
f 67/1/25 71/1/23 72/1/25
f 62/1/24 61/1/23 72/1/25
f 71/1/23 73/1/23 72/1/25
f 74/1/23 62/1/24 72/1/25
f 62/1/24 74/1/23 75/1/23
f 73/1/23 76/1/23 72/1/25
f 76/1/23 73/1/23 77/1/23
f 78/1/23 77/1/23 73/1/23
f 77/1/23 78/1/23 79/1/23
f 80/1/23 79/1/23 78/1/23
f 79/1/23 80/1/23 81/1/23
f 81/1/23 80/1/23 82/1/23
f 83/1/26 84/1/27 85/1/26
f 83/1/26 85/1/26 86/1/28
f 84/1/27 87/1/26 85/1/26
f 88/1/26 84/1/27 83/1/26
f 84/1/27 88/1/26 89/1/26
f 90/1/26 89/1/26 88/1/26
f 89/1/26 90/1/26 91/1/26
f 91/1/26 90/1/26 92/1/28
f 93/1/26 91/1/26 92/1/28
f 84/1/27 94/1/27 87/1/26
f 94/1/27 84/1/27 93/1/26
f 92/1/28 94/1/27 93/1/26
f 87/1/26 94/1/27 95/1/26
f 92/1/28 96/1/26 94/1/27
f 96/1/26 92/1/28 97/1/26
f 94/1/27 98/1/26 95/1/26
f 99/1/26 95/1/26 98/1/26
f 95/1/26 99/1/26 100/1/26
f 100/1/26 99/1/26 101/1/26
f 101/1/26 102/1/26 100/1/26
f 103/1/26 102/1/26 101/1/26
f 102/1/26 103/1/26 104/1/26
f 105/1/29 106/1/29 107/1/29
f 108/1/29 107/1/29 106/1/29
f 109/1/30 110/1/30 111/1/30
f 110/1/30 109/1/30 112/1/31
f 113/1/32 114/1/33 115/1/34
f 115/1/34 116/1/33 113/1/32
f 117/1/35 118/1/35 119/1/35
f 119/1/35 120/1/35 117/1/35
f 121/1/33 122/1/33 123/1/34
f 123/1/34 124/1/32 121/1/33
f 125/1/29 126/1/29 127/1/29
f 125/1/29 127/1/29 128/1/29
f 129/1/11 130/1/11 131/1/11
f 130/1/11 129/1/11 132/1/11
f 133/1/17 134/1/17 135/1/17
f 135/1/17 134/1/17 136/1/17
f 137/1/11 138/1/11 139/1/11
f 138/1/11 137/1/11 140/1/11
f 141/1/36 142/1/36 143/1/36
f 143/1/36 144/1/36 141/1/36
f 145/1/37 146/1/38 147/1/39
f 147/1/39 148/1/39 145/1/37
f 149/1/40 150/1/40 151/1/40
f 150/1/40 149/1/40 152/1/40
f 153/1/41 154/1/41 155/1/41
f 155/1/41 156/1/41 153/1/41
f 157/1/42 158/1/42 159/1/43
f 158/1/42 157/1/42 160/1/43
f 161/1/31 162/1/44 163/1/44
f 163/1/44 162/1/44 164/1/44
f 165/1/45 166/1/45 167/1/45
f 168/1/45 167/1/45 166/1/45
f 169/1/46 170/1/46 171/1/46
f 170/1/46 169/1/46 172/1/46
f 173/1/47 174/1/48 175/1/47
f 173/1/47 175/1/47 176/1/48
f 177/1/49 178/1/49 179/1/49
f 177/1/49 179/1/49 180/1/49
f 181/2/4 182/3/4 183/4/4
f 182/3/4 181/2/4 184/5/4
f 185/6/10 186/7/10 187/8/10
f 188/9/10 187/8/10 186/7/10
f 189/10/2 190/2/2 191/2/2
f 189/10/2 191/2/2 192/10/2
f 190/2/2 189/10/2 193/5/2
f 194/11/50 193/5/2 189/10/2
f 195/8/2 193/5/2 194/11/50
f 194/11/50 196/6/2 195/8/2
f 196/6/2 194/11/50 197/6/2
f 198/11/2 197/6/2 194/11/50
f 199/3/1 200/12/51 201/4/1
f 200/12/51 202/4/1 201/4/1
f 202/4/1 200/12/51 203/12/1
f 200/12/51 199/3/1 204/13/1
f 200/12/51 204/13/1 205/14/1
f 206/15/1 205/14/1 204/13/1
f 205/14/1 206/15/1 207/15/1
f 205/14/1 207/15/1 208/14/1
f 209/6/52 210/7/52 211/7/53
f 209/6/52 211/7/53 212/6/54
f 213/2/55 214/4/56 215/4/57
f 213/2/55 215/4/57 216/2/57
f 217/11/11 218/16/11 219/17/58
f 217/11/11 219/17/58 220/6/58
f 221/2/59 222/18/59 223/19/11
f 221/2/59 223/19/11 224/10/11
f 225/10/11 226/19/11 227/16/11
f 225/10/11 227/16/11 228/11/11
f 229/10/10 230/19/10 231/10/10
f 230/19/10 229/10/10 232/19/60
f 233/16/4 234/11/61 235/11/4
f 233/16/4 235/11/4 236/16/4
