# Blender 5.1.2
# www.blender.org
mtllib Spike222Final.mtl
o Spike2
v 0.862578 -0.157683 -0.099922
v 0.663849 -0.311657 -0.084926
v 0.663849 -0.311657 -0.114625
v 0.644023 0.468572 -0.099922
v 0.611935 0.218914 -0.084926
v 0.611935 0.218914 -0.114625
v 0.805215 0.205644 -0.099922
v 0.687720 -0.016983 -0.084926
v 0.687720 -0.016983 -0.114625
v 0.347298 0.684336 -0.099922
v 0.421155 0.443960 -0.084926
v 0.421155 0.443960 -0.114625
v 0.012921 -0.801580 -0.114625
v 0.012921 -0.801580 -0.084926
v -0.049341 -0.975821 -0.099922
v 0.496593 -0.588697 -0.114625
v 0.496593 -0.588697 -0.084926
v 0.575379 -0.755972 -0.099922
v 0.297779 -0.733278 -0.114625
v 0.297779 -0.733278 -0.084926
v 0.312983 -0.917641 -0.099922
v -0.229513 -0.762875 -0.114625
v -0.229513 -0.762875 -0.084926
v -0.348794 -0.904230 -0.099922
v -0.665346 0.091763 -0.084926
v -0.690581 -0.124490 -0.084926
v -0.665346 0.091763 -0.114625
v -0.690581 -0.124490 -0.114625
v -0.498089 0.368806 -0.114625
v -0.328012 0.504187 -0.114625
v -0.328012 0.504187 -0.084926
v -0.498089 0.368806 -0.084926
v -0.689216 -0.202911 -0.084926
v -0.622632 -0.410029 -0.084926
v -0.689216 -0.202911 -0.114625
v -0.622632 -0.410029 -0.114625
v -0.651450 0.118597 -0.114625
v -0.552599 0.312512 -0.114625
v -0.552599 0.312512 -0.084926
v -0.651450 0.118597 -0.084926
v 0.047845 0.755927 -0.099922
v 0.201316 0.556801 -0.084926
v 0.201316 0.556801 -0.114625
v -0.576878 0.536078 -0.099922
v -0.328012 0.504187 -0.084926
v -0.328012 0.504187 -0.114625
v -0.314482 0.697748 -0.099922
v -0.092540 0.580426 -0.084926
v -0.092540 0.580426 -0.114625
v -0.792414 0.238009 -0.099922
v -0.552599 0.312512 -0.084926
v -0.552599 0.312512 -0.114625
v 0.689085 -0.095401 -0.084926
v 0.862578 -0.157683 -0.099922
v 0.689085 -0.095401 -0.114625
v 0.477420 0.389384 -0.084926
v 0.644023 0.468572 -0.099922
v 0.477420 0.389384 -0.114625
v 0.621136 0.190138 -0.084926
v 0.805215 0.205644 -0.099922
v 0.621136 0.190138 -0.114625
v 0.649953 -0.338491 -0.114625
v 0.649953 -0.338491 -0.084926
v 0.790916 -0.457900 -0.099922
v -0.202814 -0.776691 -0.084926
v 0.012921 -0.801580 -0.084926
v -0.202814 -0.776691 -0.114625
v 0.012921 -0.801580 -0.114625
v -0.613433 -0.438804 -0.084926
v -0.478916 -0.609279 -0.084926
v -0.613433 -0.438804 -0.114625
v -0.478916 -0.609279 -0.114625
v 0.091041 -0.800320 -0.084926
v 0.297779 -0.733278 -0.084926
v 0.091041 -0.800320 -0.114625
v 0.297779 -0.733278 -0.114625
v -0.422653 -0.663851 -0.084926
v -0.229513 -0.762875 -0.084926
v -0.422653 -0.663851 -0.114625
v -0.229513 -0.762875 -0.114625
v 0.663849 -0.311657 -0.084926
v 0.862578 -0.157683 -0.099922
v 0.689085 -0.095401 -0.084926
v -0.690581 -0.124490 -0.084926
v -0.665346 0.091763 -0.084926
v -0.864074 -0.062211 -0.099922
v 0.201316 0.556801 -0.084926
v 0.047845 0.755927 -0.099922
v -0.014417 0.581686 -0.084926
v 0.012921 -0.801580 -0.084926
v -0.202814 -0.776691 -0.084926
v -0.049341 -0.975821 -0.099922
v 0.611935 0.218914 -0.084926
v 0.644023 0.468572 -0.099922
v 0.477420 0.389384 -0.084926
v -0.478916 -0.609279 -0.084926
v -0.613433 -0.438804 -0.084926
v -0.645522 -0.688466 -0.099922
v -0.328012 0.504187 -0.084926
v -0.576878 0.536078 -0.099922
v -0.498089 0.368806 -0.084926
v 0.496593 -0.588697 -0.084926
v 0.326517 -0.724078 -0.084926
v 0.575379 -0.755972 -0.099922
v 0.687720 -0.016983 -0.084926
v 0.805215 0.205644 -0.099922
v 0.621136 0.190138 -0.084926
v -0.622632 -0.410029 -0.084926
v -0.689216 -0.202911 -0.084926
v -0.806713 -0.425534 -0.099922
v -0.092540 0.580426 -0.084926
v -0.314482 0.697748 -0.099922
v -0.299275 0.513383 -0.084926
v 0.297779 -0.733278 -0.084926
v 0.091041 -0.800320 -0.084926
v 0.312983 -0.917641 -0.099922
v 0.421155 0.443960 -0.084926
v 0.347298 0.684336 -0.099922
v 0.228018 0.542984 -0.084926
v -0.229513 -0.762875 -0.084926
v -0.422653 -0.663851 -0.084926
v -0.348794 -0.904230 -0.099922
v -0.552599 0.312512 -0.084926
v -0.792414 0.238009 -0.099922
v -0.651450 0.118597 -0.084926
v 0.649953 -0.338491 -0.084926
v 0.551101 -0.532403 -0.084926
v 0.790916 -0.457900 -0.099922
v -0.864074 -0.062211 -0.099922
v -0.665346 0.091763 -0.084926
v -0.665346 0.091763 -0.114625
v -0.645522 -0.688466 -0.099922
v -0.613433 -0.438804 -0.084926
v -0.613433 -0.438804 -0.114625
v -0.806713 -0.425534 -0.099922
v -0.689216 -0.202911 -0.084926
v -0.689216 -0.202911 -0.114625
v -0.348794 -0.904230 -0.099922
v -0.422653 -0.663851 -0.084926
v -0.422653 -0.663851 -0.114625
v -0.014417 0.581686 -0.084926
v 0.047845 0.755927 -0.099922
v -0.014417 0.581686 -0.114625
v -0.498089 0.368806 -0.084926
v -0.576878 0.536078 -0.099922
v -0.498089 0.368806 -0.114625
v -0.299275 0.513383 -0.084926
v -0.314482 0.697748 -0.099922
v -0.299275 0.513383 -0.114625
v 0.228018 0.542984 -0.084926
v 0.347298 0.684336 -0.099922
v 0.228018 0.542984 -0.114625
v 0.689085 -0.095401 -0.114625
v 0.663849 -0.311657 -0.114625
v 0.663849 -0.311657 -0.084926
v 0.689085 -0.095401 -0.084926
v 0.326517 -0.724078 -0.084926
v 0.496593 -0.588697 -0.084926
v 0.326517 -0.724078 -0.114625
v 0.496593 -0.588697 -0.114625
v 0.621136 0.190138 -0.114625
v 0.687720 -0.016983 -0.114625
v 0.687720 -0.016983 -0.084926
v 0.621136 0.190138 -0.084926
v 0.551101 -0.532403 -0.084926
v 0.649953 -0.338491 -0.084926
v 0.551101 -0.532403 -0.114625
v 0.649953 -0.338491 -0.114625
v -0.049341 -0.975821 -0.099922
v -0.202814 -0.776691 -0.084926
v -0.202814 -0.776691 -0.114625
v 0.575379 -0.755972 -0.099922
v 0.326517 -0.724078 -0.084926
v 0.326517 -0.724078 -0.114625
v 0.312983 -0.917641 -0.099922
v 0.091041 -0.800320 -0.084926
v 0.091041 -0.800320 -0.114625
v 0.790916 -0.457900 -0.099922
v 0.551101 -0.532403 -0.084926
v 0.551101 -0.532403 -0.114625
v -0.690581 -0.124490 -0.114625
v -0.690581 -0.124490 -0.084926
v -0.864074 -0.062211 -0.099922
v -0.478916 -0.609279 -0.114625
v -0.478916 -0.609279 -0.084926
v -0.645522 -0.688466 -0.099922
v -0.622632 -0.410029 -0.114625
v -0.622632 -0.410029 -0.084926
v -0.806713 -0.425534 -0.099922
v -0.651450 0.118597 -0.084926
v -0.792414 0.238009 -0.099922
v -0.651450 0.118597 -0.114625
v -0.014417 0.581686 -0.114625
v 0.201316 0.556801 -0.114625
v 0.201316 0.556801 -0.084926
v -0.014417 0.581686 -0.084926
v 0.477420 0.389384 -0.114625
v 0.611935 0.218914 -0.114625
v 0.611935 0.218914 -0.084926
v 0.477420 0.389384 -0.084926
v -0.299275 0.513383 -0.114625
v -0.092540 0.580426 -0.114625
v -0.092540 0.580426 -0.084926
v -0.299275 0.513383 -0.084926
v 0.228018 0.542984 -0.114625
v 0.421155 0.443960 -0.114625
v 0.421155 0.443960 -0.084926
v 0.228018 0.542984 -0.084926
v 0.689085 -0.095401 -0.114625
v 0.862578 -0.157683 -0.099922
v 0.663849 -0.311657 -0.114625
v -0.665346 0.091763 -0.114625
v -0.690581 -0.124490 -0.114625
v -0.864074 -0.062211 -0.099922
v -0.014417 0.581686 -0.114625
v 0.047845 0.755927 -0.099922
v 0.201316 0.556801 -0.114625
v -0.202814 -0.776691 -0.114625
v 0.012921 -0.801580 -0.114625
v -0.049341 -0.975821 -0.099922
v 0.477420 0.389384 -0.114625
v 0.644023 0.468572 -0.099922
v 0.611935 0.218914 -0.114625
v -0.613433 -0.438804 -0.114625
v -0.478916 -0.609279 -0.114625
v -0.645522 -0.688466 -0.099922
v -0.498089 0.368806 -0.114625
v -0.576878 0.536078 -0.099922
v -0.328012 0.504187 -0.114625
v 0.326517 -0.724078 -0.114625
v 0.496593 -0.588697 -0.114625
v 0.575379 -0.755972 -0.099922
v 0.621136 0.190138 -0.114625
v 0.805215 0.205644 -0.099922
v 0.687720 -0.016983 -0.114625
v -0.689216 -0.202911 -0.114625
v -0.622632 -0.410029 -0.114625
v -0.806713 -0.425534 -0.099922
v -0.299275 0.513383 -0.114625
v -0.314482 0.697748 -0.099922
v -0.092540 0.580426 -0.114625
v 0.091041 -0.800320 -0.114625
v 0.297779 -0.733278 -0.114625
v 0.312983 -0.917641 -0.099922
v 0.228018 0.542984 -0.114625
v 0.347298 0.684336 -0.099922
v 0.421155 0.443960 -0.114625
v -0.422653 -0.663851 -0.114625
v -0.229513 -0.762875 -0.114625
v -0.348794 -0.904230 -0.099922
v -0.651450 0.118597 -0.114625
v -0.792414 0.238009 -0.099922
v -0.552599 0.312512 -0.114625
v 0.551101 -0.532403 -0.114625
v 0.649953 -0.338491 -0.114625
v 0.790916 -0.457900 -0.099922
vn 0.6109 -0.7917 -0.0000
vn 0.9913 -0.1314 -0.0000
vn 0.8865 -0.4626 -0.0000
vn 0.9557 0.2944 -0.0000
vn 0.9415 -0.3370 -0.0000
vn 0.9062 0.4228 -0.0000
vn 0.9965 0.0837 -0.0000
vn 0.7625 -0.6470 -0.0000
vn 0.9933 -0.1159 -0.0000
vn 0.6196 -0.7849 -0.0000
vn 0.6195 -0.7850 -0.0000
vn 0.9515 0.3076 -0.0000
vn 0.9516 0.3075 -0.0000
vn 0.9516 0.3074 -0.0000
vn 0.8901 -0.4559 -0.0000
vn 0.8901 -0.4558 -0.0000
vn 0.7936 0.6084 -0.0000
vn 0.1310 0.9914 -0.0000
vn 0.4640 0.8858 -0.0000
vn -0.2967 0.9550 -0.0000
vn 0.3379 0.9412 -0.0000
vn -0.4255 0.9050 -0.0000
vn -0.0853 0.9964 -0.0000
vn 0.6489 0.7609 -0.0000
vn 0.1154 0.9933 -0.0000
vn 0.1152 0.9933 -0.0000
vn 0.1153 0.9933 -0.0000
vn 0.7868 0.6173 -0.0000
vn -0.3099 0.9508 -0.0000
vn -0.3101 0.9507 -0.0000
vn 0.4573 0.8893 -0.0000
vn 0.4572 0.8894 -0.0000
vn 0.0793 -0.0089 0.9968
vn -0.0792 0.0089 0.9968
vn 0.0088 0.0790 0.9968
vn -0.0089 -0.0790 0.9968
vn 0.0625 0.0533 0.9966
vn -0.0625 -0.0533 0.9966
vn -0.0535 0.0624 0.9966
vn 0.0535 -0.0624 0.9966
vn 0.0794 0.0278 0.9965
vn -0.0793 -0.0278 0.9965
vn -0.0279 0.0792 0.9965
vn 0.0280 -0.0792 0.9965
vn 0.0371 0.0732 0.9966
vn -0.0371 -0.0732 0.9966
vn -0.0734 0.0371 0.9966
vn 0.0734 -0.0371 0.9966
vn -0.6109 0.7917 -0.0000
vn -0.9913 0.1314 -0.0000
vn -0.8866 0.4626 -0.0000
vn -0.9556 -0.2945 -0.0000
vn -0.9415 0.3371 -0.0000
vn -0.9062 -0.4228 -0.0000
vn -0.9965 -0.0836 -0.0000
vn -0.7625 0.6470 -0.0000
vn -0.9933 0.1159 -0.0000
vn -0.6196 0.7849 -0.0000
vn -0.6195 0.7850 -0.0000
vn -0.9515 -0.3076 -0.0000
vn -0.9516 -0.3075 -0.0000
vn -0.9515 -0.3077 -0.0000
vn -0.8901 0.4558 -0.0000
vn -0.8900 0.4559 -0.0000
vn -0.7936 -0.6084 -0.0000
vn -0.1310 -0.9914 -0.0000
vn -0.4640 -0.8858 -0.0000
vn 0.2970 -0.9549 -0.0000
vn -0.3379 -0.9412 -0.0000
vn 0.4254 -0.9050 -0.0000
vn 0.0852 -0.9964 -0.0000
vn -0.6489 -0.7609 -0.0000
vn -0.1154 -0.9933 -0.0000
vn -0.1155 -0.9933 -0.0000
vn -0.7869 -0.6171 -0.0000
vn -0.7868 -0.6173 -0.0000
vn 0.3099 -0.9508 -0.0000
vn 0.3100 -0.9507 -0.0000
vn 0.3101 -0.9507 -0.0000
vn -0.4572 -0.8894 -0.0000
vn -0.4574 -0.8893 -0.0000
vn -0.4573 -0.8893 -0.0000
vn 0.0792 -0.0089 -0.9968
vn -0.0792 0.0089 -0.9968
vn 0.0089 0.0791 -0.9968
vn -0.0088 -0.0790 -0.9968
vn 0.0625 0.0533 -0.9966
vn -0.0625 -0.0533 -0.9966
vn -0.0535 0.0624 -0.9966
vn 0.0535 -0.0624 -0.9966
vn 0.0794 0.0278 -0.9965
vn -0.0793 -0.0278 -0.9965
vn -0.0280 0.0792 -0.9965
vn 0.0280 -0.0792 -0.9965
vn 0.0371 0.0732 -0.9966
vn -0.0371 -0.0732 -0.9966
vn -0.0734 0.0371 -0.9966
vn 0.0734 -0.0371 -0.9966
vt 28.000000 -12.952000
vt 27.993799 -13.024300
vt 28.006201 -13.024300
vt 28.000000 -12.736100
vt 27.993799 -12.831200
vt 28.006201 -12.831200
vt 28.000000 -12.821400
vt 27.993799 -12.913000
vt 28.006201 -12.913000
vt 28.000000 -12.678600
vt 27.993799 -12.762200
vt 28.006201 -12.762200
vt 28.006201 -13.255800
vt 27.993799 -13.255800
vt 28.000000 -13.325200
vt 28.006201 -13.139900
vt 27.993799 -13.139900
vt 28.000000 -13.196000
vt 28.006201 -13.208700
vt 27.993799 -13.208700
vt 28.000000 -13.276000
vt 28.006201 -13.259900
vt 27.993799 -13.259900
vt 28.000000 -13.321400
vt 27.993799 -12.975700
vt 27.993799 -13.058000
vt 28.006201 -12.975700
vt 28.006201 -13.058000
vt 28.006201 -12.860100
vt 28.006201 -12.796900
vt 27.993799 -12.796900
vt 27.993799 -12.860100
vt 27.993799 -13.087000
vt 27.993799 -13.158800
vt 28.006201 -13.087000
vt 28.006201 -13.158800
vt 28.006201 -12.964700
vt 28.006201 -12.885200
vt 27.993799 -12.885200
vt 27.993799 -12.964700
vt 28.048000 -13.000000
vt 27.975700 -12.993800
vt 27.975700 -13.006200
vt 28.263901 -13.000000
vt 28.168800 -12.993800
vt 28.168800 -13.006200
vt 28.178600 -13.000000
vt 28.087000 -12.993800
vt 28.087000 -13.006200
vt 28.321400 -13.000000
vt 28.237801 -12.993800
vt 28.237801 -13.006200
vt 27.744200 -12.993800
vt 27.674801 -13.000000
vt 27.744200 -13.006200
vt 27.860100 -12.993800
vt 27.804001 -13.000000
vt 27.860100 -13.006200
vt 27.791300 -12.993800
vt 27.724001 -13.000000
vt 27.791300 -13.006200
vt 27.740101 -13.006200
vt 27.740101 -12.993800
vt 27.678600 -13.000000
vt 28.024300 -12.993800
vt 27.941999 -12.993800
vt 28.024300 -13.006200
vt 27.941999 -13.006200
vt 28.203100 -12.993800
vt 28.139900 -12.993800
vt 28.203100 -13.006200
vt 28.139900 -13.006200
vt 27.913000 -12.993800
vt 27.841200 -12.993800
vt 27.913000 -13.006200
vt 27.841200 -13.006200
vt 28.114799 -12.993800
vt 28.035299 -12.993800
vt 28.114799 -13.006200
vt 28.035299 -13.006200
vt 28.263000 -13.024300
vt 28.325199 -12.952000
vt 28.255800 -12.942000
vt 27.744200 -13.058000
vt 27.737000 -12.975700
vt 27.674801 -13.048000
vt 28.024300 -12.737000
vt 27.952000 -12.674800
vt 27.942101 -12.744200
vt 28.058001 -13.255800
vt 27.975700 -13.263000
vt 28.048000 -13.325200
vt 28.203100 -12.831200
vt 28.195999 -12.736100
vt 28.139900 -12.778200
vt 27.860100 -13.221800
vt 27.796900 -13.168800
vt 27.804001 -13.263900
vt 27.831200 -12.796900
vt 27.736099 -12.804000
vt 27.778200 -12.860100
vt 28.221800 -13.139900
vt 28.168800 -13.203100
vt 28.263901 -13.196000
vt 28.249399 -12.913000
vt 28.275999 -12.821400
vt 28.208700 -12.841200
vt 27.791300 -13.158800
vt 27.750601 -13.087000
vt 27.724001 -13.178600
vt 27.913000 -12.750600
vt 27.821400 -12.724000
vt 27.841200 -12.791300
vt 28.158800 -13.208700
vt 28.087000 -13.249400
vt 28.178600 -13.276000
vt 28.114799 -12.762200
vt 28.068899 -12.678600
vt 28.035299 -12.740100
vt 27.964701 -13.259900
vt 27.885201 -13.237800
vt 27.931101 -13.321400
vt 27.762199 -12.885200
vt 27.678600 -12.931100
vt 27.740101 -12.964700
vt 28.259899 -13.035300
vt 28.237801 -13.114800
vt 28.321400 -13.068900
vt 28.000000 -13.048000
vt 28.000000 -13.263900
vt 28.006201 -13.168800
vt 27.993799 -13.168800
vt 28.000000 -13.178600
vt 28.006201 -13.237800
vt 27.993799 -13.237800
vt 28.006201 -12.744200
vt 28.000000 -12.674800
vt 27.993799 -12.744200
vt 28.000000 -12.804000
vt 28.006201 -12.791300
vt 28.000000 -12.724000
vt 27.993799 -12.791300
vt 28.006201 -12.740100
vt 27.993799 -12.740100
vt 27.993799 -12.942000
vt 28.006201 -12.942000
vt 28.006201 -13.203100
vt 27.993799 -13.203100
vt 27.993799 -12.841200
vt 28.006201 -12.841200
vt 28.006201 -13.114800
vt 28.006201 -13.035300
vt 27.993799 -13.114800
vt 27.993799 -13.035300
vt 27.942101 -13.006200
vt 27.942101 -12.993800
vt 27.744200 -12.942000
vt 27.674801 -12.952000
vt 27.737000 -13.024300
vt 28.263000 -12.975700
vt 28.255800 -13.058000
vt 28.325199 -13.048000
vt 28.057899 -12.744200
vt 28.048000 -12.674800
vt 27.975700 -12.737000
vt 28.024300 -13.263000
vt 27.941999 -13.255800
vt 27.952000 -13.325200
vt 27.860100 -12.778200
vt 27.804001 -12.736100
vt 27.796900 -12.831200
vt 28.203100 -13.168800
vt 28.139900 -13.221800
vt 28.195999 -13.263900
vt 28.221800 -12.860100
vt 28.263901 -12.804000
vt 28.168800 -12.796900
vt 27.831200 -13.203100
vt 27.778200 -13.139900
vt 27.736099 -13.196000
vt 27.791300 -12.841200
vt 27.724001 -12.821400
vt 27.750601 -12.913000
vt 28.249399 -13.087000
vt 28.208700 -13.158800
vt 28.275999 -13.178600
vt 28.158800 -12.791300
vt 28.178600 -12.724000
vt 28.087000 -12.750600
vt 27.913000 -13.249400
vt 27.841200 -13.208700
vt 27.821400 -13.276000
vt 27.964701 -12.740100
vt 27.931101 -12.678600
vt 27.885201 -12.762200
vt 28.114799 -13.237800
vt 28.035299 -13.259900
vt 28.068899 -13.321400
vt 28.259899 -12.964700
vt 28.321400 -12.931100
vt 28.237801 -12.885200
vt 27.762199 -13.114800
vt 27.740101 -13.035300
vt 27.678600 -13.068900
s 1
usemtl Spikes21Mtl
f 1/1/1 2/2/1 3/3/1
f 4/4/2 5/5/2 6/6/2
f 7/7/3 8/8/3 9/9/3
f 10/10/4 11/11/4 12/12/4
f 13/13/5 14/14/5 15/15/5
f 16/16/6 17/17/6 18/18/6
f 19/19/7 20/20/7 21/21/7
f 22/22/8 23/23/8 24/24/8
f 25/25/9 26/26/9 27/27/9
f 28/28/9 27/27/9 26/26/9
f 29/29/10 30/30/11 31/31/11
f 29/29/10 31/31/11 32/32/10
f 33/33/12 34/34/13 35/35/12
f 36/36/14 35/35/12 34/34/13
f 37/37/15 38/38/16 39/39/15
f 37/37/15 39/39/15 40/40/16
f 41/41/17 42/42/17 43/43/17
f 44/44/18 45/45/18 46/46/18
f 47/47/19 48/48/19 49/49/19
f 50/50/20 51/51/20 52/52/20
f 53/53/21 54/54/21 55/55/21
f 56/56/22 57/57/22 58/58/22
f 59/59/23 60/60/23 61/61/23
f 62/62/24 63/63/24 64/64/24
f 65/65/25 66/66/26 67/67/25
f 68/68/27 67/67/25 66/66/26
f 69/69/28 70/70/28 71/71/28
f 72/72/28 71/71/28 70/70/28
f 73/73/29 74/74/30 75/75/29
f 76/76/30 75/75/29 74/74/30
f 77/77/31 78/78/31 79/79/31
f 80/80/32 79/79/31 78/78/31
f 81/81/33 82/82/33 83/83/33
f 84/84/34 85/85/34 86/86/34
f 87/87/35 88/88/35 89/89/35
f 90/90/36 91/91/36 92/92/36
f 93/93/37 94/94/37 95/95/37
f 96/96/38 97/97/38 98/98/38
f 99/99/39 100/100/39 101/101/39
f 102/102/40 103/103/40 104/104/40
f 105/105/41 106/106/41 107/107/41
f 108/108/42 109/109/42 110/110/42
f 111/111/43 112/112/43 113/113/43
f 114/114/44 115/115/44 116/116/44
f 117/117/45 118/118/45 119/119/45
f 120/120/46 121/121/46 122/122/46
f 123/123/47 124/124/47 125/125/47
f 126/126/48 127/127/48 128/128/48
f 129/129/49 130/27/49 131/25/49
f 132/130/50 133/131/50 134/132/50
f 135/133/51 136/35/51 137/33/51
f 138/24/52 139/134/52 140/135/52
f 141/136/53 142/137/53 143/138/53
f 144/29/54 145/139/54 146/32/54
f 147/140/55 148/141/55 149/142/55
f 150/143/56 151/10/56 152/144/56
f 153/145/57 154/2/57 155/3/57
f 153/145/57 155/3/57 156/146/57
f 157/147/58 158/16/59 159/148/58
f 160/17/59 159/148/58 158/16/59
f 161/149/60 162/8/61 163/9/61
f 161/149/60 163/9/61 164/150/62
f 165/151/63 166/152/64 167/153/63
f 168/154/63 167/153/63 166/152/64
f 169/41/65 170/42/65 171/43/65
f 172/44/66 173/45/66 174/46/66
f 175/47/67 176/48/67 177/49/67
f 178/50/68 179/51/68 180/52/68
f 181/55/69 182/53/69 183/54/69
f 184/58/70 185/56/70 186/57/70
f 187/61/71 188/59/71 189/60/71
f 190/63/72 191/64/72 192/62/72
f 193/155/73 194/67/74 195/65/74
f 193/155/73 195/65/74 196/156/73
f 197/72/75 198/71/76 199/69/76
f 197/72/75 199/69/76 200/70/75
f 201/76/77 202/75/78 203/73/79
f 201/76/77 203/73/79 204/74/77
f 205/80/80 206/79/81 207/77/82
f 205/80/80 207/77/82 208/78/80
f 209/157/83 210/158/83 211/159/83
f 212/160/84 213/161/84 214/162/84
f 215/163/85 216/164/85 217/165/85
f 218/166/86 219/167/86 220/168/86
f 221/169/87 222/170/87 223/171/87
f 224/172/88 225/173/88 226/174/88
f 227/175/89 228/176/89 229/177/89
f 230/178/90 231/179/90 232/180/90
f 233/181/91 234/182/91 235/183/91
f 236/184/92 237/185/92 238/186/92
f 239/187/93 240/188/93 241/189/93
f 242/190/94 243/191/94 244/192/94
f 245/193/95 246/194/95 247/195/95
f 248/196/96 249/197/96 250/198/96
f 251/199/97 252/200/97 253/201/97
f 254/202/98 255/203/98 256/204/98
