# Blender 5.1.2
# www.blender.org
mtllib 12mag3nfig.mtl
o boltforaim.102
v 0.169711 0.038107 -0.073916
v 0.169622 -0.044789 0.002804
v 0.169711 0.038107 0.079524
v 0.169648 -0.020510 -0.051445
v 0.169800 0.121004 0.002804
v 0.169774 0.096724 -0.051445
v 0.169774 0.096724 0.057053
v 0.169648 -0.020510 0.057053
vn 1.0000 -0.0011 -0.0000
vt 0.000000 0.000000
s 1
f 1/1/1 2/1/1 4/1/1
f 1/1/1 3/1/1 2/1/1
f 1/1/1 5/1/1 3/1/1
f 5/1/1 1/1/1 6/1/1
f 3/1/1 5/1/1 7/1/1
f 2/1/1 3/1/1 8/1/1
o boltforaim.103
v 0.016870 -0.076178 0.002804
v 0.016960 0.006718 -0.073916
v 0.016960 0.006718 0.079524
v 0.016896 -0.051898 0.057053
v 0.016896 -0.051898 -0.051445
v 0.017049 0.089615 0.002804
v 0.017023 0.065335 0.057053
v 0.017023 0.065335 -0.051445
vn -1.0000 0.0011 -0.0000
vt 0.000000 0.000000
s 1
f 9/2/2 10/2/2 13/2/2
f 9/2/2 11/2/2 10/2/2
f 11/2/2 9/2/2 12/2/2
f 11/2/2 14/2/2 10/2/2
f 14/2/2 11/2/2 15/2/2
f 10/2/2 14/2/2 16/2/2
o boltforaim.106
v 0.068078 0.173396 0.280926
v 0.059181 0.172979 0.280025
v 0.059369 0.348445 0.117633
v 0.068267 0.349432 0.118006
v 0.067811 -0.075558 0.280926
v 0.058916 -0.075169 0.280025
v 0.067623 -0.251596 0.118006
v 0.058728 -0.250635 0.117633
v 0.067623 -0.251596 -0.112398
v 0.058728 -0.250635 -0.112024
v 0.067811 -0.075558 -0.275317
v 0.068078 0.173396 -0.275317
v 0.059181 0.172978 -0.274417
v 0.058916 -0.075169 -0.274417
v 0.059369 0.348445 -0.112025
v 0.068267 0.349432 -0.112398
v 0.021049 0.170408 -0.268805
v 0.021233 0.342323 -0.109700
v 0.020604 -0.244632 -0.109700
v 0.020788 -0.072716 -0.268805
v 0.021233 0.342323 0.115308
v 0.020604 -0.244632 0.115308
v 0.021049 0.170408 0.274413
v 0.020788 -0.072716 0.274413
v 0.058916 -0.075169 0.280025
v 0.020788 -0.072716 0.274413
v 0.059181 0.172979 0.280025
v 0.058728 -0.250635 0.117633
v 0.020604 -0.244632 0.115308
v 0.020604 -0.244632 -0.109700
v 0.058728 -0.250635 -0.112024
v 0.020788 -0.072716 -0.268805
v 0.058916 -0.075169 -0.274417
v 0.059181 0.172978 -0.274417
v 0.059369 0.348445 -0.112025
v 0.021049 0.170408 -0.268805
v 0.021233 0.342323 -0.109700
v 0.021233 0.342323 0.115308
v 0.021049 0.170408 0.274413
v 0.059369 0.348445 0.117633
v 0.158201 0.169773 -0.277005
v 0.157941 -0.073352 -0.277005
v 0.157757 -0.245266 -0.117899
v 0.158385 0.341687 -0.117899
v 0.157757 -0.245266 0.107109
v 0.158385 0.341687 0.107109
v 0.158201 0.169773 0.266214
v 0.157941 -0.073352 0.266214
v 0.157941 -0.073352 0.266214
v 0.060912 -0.076417 0.272726
v 0.158201 0.169773 0.266214
v 0.060723 -0.252455 0.109807
v 0.157757 -0.245266 0.107109
v 0.060723 -0.252455 -0.120596
v 0.157757 -0.245266 -0.117899
v 0.157941 -0.073352 -0.277005
v 0.060912 -0.076417 -0.283517
v 0.158201 0.169773 -0.277005
v 0.158385 0.341687 -0.117899
v 0.061367 0.348574 -0.120597
v 0.061178 0.172536 -0.283517
v 0.061367 0.348574 0.109806
v 0.061178 0.172536 0.272726
v 0.158385 0.341687 0.107109
vn -0.1107 0.3558 0.9280
vn -0.1096 -0.3552 0.9284
vn -0.1175 0.9063 0.4059
vn -0.1175 0.9065 0.4054
vn -0.1095 -0.3558 0.9281
vn -0.1149 -0.9066 0.4061
vn -0.1149 -0.9068 0.4056
vn -0.1150 -0.9067 -0.4058
vn -0.1150 -0.9068 -0.4056
vn -0.1095 -0.3552 -0.9284
vn -0.1106 0.3559 -0.9279
vn -0.1106 0.3557 -0.9280
vn -0.1095 -0.3562 -0.9280
vn -0.1175 0.9063 -0.4059
vn -0.1176 0.9063 -0.4059
vn -1.0000 0.0011 -0.0000
vn -0.1584 -0.3538 0.9218
vn -0.1663 -0.8999 0.4031
vn -0.1584 -0.3528 0.9222
vn -0.1594 0.3536 0.9217
vn -0.1662 -0.9000 0.4030
vn -0.1663 -0.9001 -0.4026
vn -0.1663 -0.8999 -0.4031
vn -0.1584 -0.3528 -0.9222
vn -0.1584 -0.3534 -0.9220
vn -0.1595 0.3540 -0.9216
vn -0.1595 0.3534 -0.9218
vn -0.1690 0.8998 -0.4024
vn -0.1690 0.8996 -0.4028
vn -0.1690 0.8996 0.4028
vn -0.1690 0.8998 0.4024
vn -0.1595 0.3530 0.9219
vn 1.0000 -0.0011 -0.0000
vn 0.0787 -0.9100 0.4070
vn 0.0738 -0.3570 0.9312
vn 0.0738 -0.3571 0.9311
vn 0.0727 0.3572 0.9312
vn 0.0788 -0.9101 0.4069
vn 0.0787 -0.9100 -0.4070
vn 0.0787 -0.9098 -0.4075
vn 0.0738 -0.3565 -0.9314
vn 0.0738 -0.3571 -0.9311
vn 0.0727 0.3570 -0.9313
vn 0.0759 0.9100 -0.4076
vn 0.0759 0.9102 -0.4071
vn 0.0759 0.9100 0.4076
vn 0.0759 0.9102 0.4071
vn 0.0727 0.3567 0.9314
vt 0.000000 0.000000
s 1
f 18/3/3 21/3/4 17/3/3
f 17/3/3 19/3/5 18/3/3
f 19/3/5 17/3/3 20/3/6
f 21/3/4 18/3/3 22/3/7
f 22/3/7 23/3/8 21/3/4
f 24/3/9 25/3/10 23/3/8
f 23/3/8 22/3/7 24/3/9
f 25/3/10 24/3/9 26/3/11
f 26/3/11 27/3/12 25/3/10
f 28/3/13 27/3/12 29/3/14
f 29/3/14 27/3/12 30/3/15
f 27/3/12 26/3/11 30/3/15
f 31/3/16 28/3/13 29/3/14
f 20/3/6 31/3/16 19/3/5
f 31/3/16 20/3/6 32/3/17
f 32/3/17 28/3/13 31/3/16
f 33/3/18 35/3/18 34/3/18
f 35/3/18 33/3/18 36/3/18
f 34/3/18 35/3/18 37/3/18
f 38/3/18 37/3/18 35/3/18
f 38/3/18 39/3/18 37/3/18
f 39/3/18 38/3/18 40/3/18
f 42/3/19 44/3/20 41/3/21
f 41/3/21 43/3/22 42/3/19
f 44/3/20 42/3/19 45/3/23
f 46/3/24 44/3/20 45/3/23
f 47/3/25 44/3/20 46/3/24
f 49/3/26 47/3/25 48/3/27
f 48/3/27 47/3/25 46/3/24
f 48/3/27 50/3/28 49/3/26
f 52/3/29 51/3/30 50/3/28
f 50/3/28 48/3/27 52/3/29
f 51/3/30 52/3/29 53/3/31
f 54/3/32 51/3/30 53/3/31
f 51/3/30 54/3/32 56/3/33
f 54/3/32 55/3/34 56/3/33
f 56/3/33 55/3/34 43/3/22
f 42/3/19 43/3/22 55/3/34
f 57/3/35 59/3/35 58/3/35
f 60/3/35 59/3/35 57/3/35
f 59/3/35 60/3/35 61/3/35
f 62/3/35 61/3/35 60/3/35
f 61/3/35 62/3/35 63/3/35
f 61/3/35 63/3/35 64/3/35
f 68/3/36 65/3/37 66/3/38
f 65/3/37 67/3/39 66/3/38
f 68/3/36 69/3/40 65/3/37
f 70/3/41 69/3/40 68/3/36
f 71/3/42 69/3/40 70/3/41
f 70/3/41 72/3/43 71/3/42
f 72/3/43 70/3/41 73/3/44
f 73/3/44 74/3/45 72/3/43
f 74/3/45 76/3/46 75/3/47
f 77/3/45 76/3/46 74/3/45
f 74/3/45 73/3/44 77/3/45
f 76/3/46 78/3/48 75/3/47
f 78/3/48 67/3/39 80/3/49
f 67/3/39 78/3/48 79/3/50
f 75/3/47 78/3/48 80/3/49
f 66/3/38 67/3/39 79/3/50
o boltforaim.107
v 0.169648 -0.051661 0.057053
v 0.016896 -0.051898 0.057053
v 0.016960 0.006718 0.079524
v 0.016870 -0.076178 0.002804
v 0.169711 0.006956 0.079524
v 0.169622 -0.075940 0.002804
v 0.016896 -0.051898 -0.051445
v 0.169648 -0.051661 -0.051445
v 0.016960 0.006718 -0.073916
v 0.169711 0.006956 -0.073916
v 0.017023 0.065335 -0.051445
v 0.169774 0.065573 -0.051445
v 0.169800 0.089853 0.002804
v 0.017049 0.089615 0.002804
v 0.017023 0.065335 0.057053
v 0.169774 0.065573 0.057053
vn 0.0016 -1.0000 -0.0000
vn 0.0011 -0.6789 0.7342
vn 0.0010 -0.6792 0.7340
vn -0.0000 0.0001 1.0000
vn -0.0000 -0.0000 1.0000
vn 0.0011 -0.6796 -0.7336
vn 0.0011 -0.6789 -0.7342
vn -0.0000 -0.0000 -1.0000
vn -0.0000 0.0001 -1.0000
vn -0.0011 0.6789 -0.7342
vn -0.0011 0.6796 -0.7336
vn -0.0016 1.0000 -0.0000
vn -0.0010 0.6793 0.7339
vn -0.0011 0.6796 0.7336
vt 0.000000 0.000000
s 1
f 84/4/51 81/4/52 82/4/53
f 81/4/52 83/4/54 82/4/53
f 83/4/54 81/4/52 85/4/55
f 84/4/51 86/4/51 81/4/52
f 87/4/56 86/4/51 84/4/51
f 87/4/56 88/4/57 86/4/51
f 89/4/58 90/4/59 88/4/57
f 89/4/58 88/4/57 87/4/56
f 91/4/60 90/4/59 89/4/58
f 91/4/60 92/4/61 90/4/59
f 92/4/61 94/4/62 93/4/62
f 94/4/62 92/4/61 91/4/60
f 95/4/63 93/4/62 94/4/62
f 93/4/62 95/4/63 96/4/64
f 83/4/54 96/4/64 95/4/63
f 83/4/54 85/4/55 96/4/64
